<?xml version="1.0" encoding="utf-8"?>
<!-- Generator: Adobe Illustrator 22.1.0, SVG Export Plug-In . SVG Version: 6.00 Build 0)  -->
<svg version="1.1" id="e8a6e089-f0a2-4336-8fc5-733c88302415"
	 xmlns="http://www.w3.org/2000/svg" xmlns:xlink="http://www.w3.org/1999/xlink" x="0px" y="0px" viewBox="0 0 888 485.5"
	 style="enable-background:new 0 0 888 485.5;" xml:space="preserve">
<style type="text/css">
	.st0{fill:#6C63FF;}
	.st1{opacity:0.2;enable-background:new    ;}
	.st2{fill:#3F3D56;}
	.st3{fill:#FF6584;}
	.st4{fill:#E6E6E6;}
	.st5{fill:#F9A825;}
	.st6{fill:#00BF71;}
</style>
<title>breakfast</title>
<circle class="st0" cx="444.5" cy="241.8" r="241.8"/>
<path class="st1" d="M444.5,418.2c-97.5,0-176.5-79-176.5-176.5S347,65.2,444.5,65.2S621,144.3,621,241.8
	c0,46.8-18.6,91.7-51.7,124.8C536.3,399.7,491.3,418.3,444.5,418.2z M444.5,76.2c-91.3,0-165.6,74.3-165.6,165.6
	s74.3,165.6,165.6,165.6s165.6-74.3,165.6-165.6S535.8,76.2,444.5,76.2L444.5,76.2z"/>
<circle class="st2" cx="444.5" cy="241.8" r="171"/>
<path class="st3" d="M317.3,173.4c-5.5-10.7-1.2-23.7,9.5-29.2s23.7-1.2,29.2,9.5l0,0l48.3,94.9c5.5,10.7,1.2,23.7-9.4,29.2
	c-10.7,5.5-23.7,1.2-29.2-9.4c0,0,0,0,0-0.1L317.3,173.4z"/>
<path class="st1" d="M322.7,184l-2.2-4.4c11.1-8.6,24.2-15,38.7-19.7l2.2,4.4C345.7,167.5,332.4,173.6,322.7,184z"/>
<path class="st1" d="M333.1,204.4l-2.2-4.4c11.1-8.6,24.2-15,38.7-19.7l2.2,4.4C356.1,188,342.8,194,333.1,204.4z"/>
<path class="st1" d="M343.5,224.8l-2.2-4.4c11.1-8.6,24.2-15,38.7-19.7l2.2,4.4C366.5,208.4,353.2,214.4,343.5,224.8z"/>
<path class="st1" d="M353.9,245.3l-2.2-4.4c11.1-8.6,24.2-15,38.7-19.7l2.2,4.4C376.9,228.8,363.6,234.9,353.9,245.3z"/>
<path class="st1" d="M364.3,265.7l-2.2-4.4c11.1-8.6,24.2-15,38.7-19.7l2.2,4.4C387.3,249.3,374,255.3,364.3,265.7z"/>
<path class="st3" d="M281.1,208.9c-5.4-10.7-1.2-23.7,9.5-29.2c10.7-5.4,23.7-1.2,29.2,9.5l0,0l48.3,94.9
	c5.4,10.7,1.2,23.8-9.5,29.2c-10.7,5.4-23.7,1.2-29.2-9.5L281.1,208.9z"/>
<path class="st1" d="M286.5,219.5l-2.2-4.4c11.1-8.6,24.2-15,38.7-19.7l2.2,4.4C309.5,203,296.1,209.1,286.5,219.5z"/>
<path class="st1" d="M296.9,239.9l-2.2-4.4c11.1-8.6,24.2-15,38.7-19.7l2.2,4.4C319.9,223.5,306.5,229.5,296.9,239.9z"/>
<path class="st1" d="M307.3,260.3l-2.2-4.4c11.1-8.6,24.2-15,38.7-19.7l2.2,4.4C330.3,243.9,317,250,307.3,260.3z"/>
<path class="st1" d="M317.7,280.8l-2.2-4.4c11.1-8.6,24.2-15,38.7-19.7l2.2,4.4C340.7,264.3,327.4,270.4,317.7,280.8z"/>
<path class="st1" d="M328.1,301.2l-2.2-4.4c11.1-8.6,24.2-15,38.7-19.7l2.2,4.4C351.1,284.8,337.8,290.8,328.1,301.2z"/>
<path class="st4" d="M558.8,247.2h0.2c10.7,0.1,20.3-6.4,24.2-16.2c4-10.1,6-20.8,5.9-31.7c-0.3-45.9-37.6-83.6-83.5-84.2
	c-46.8-0.7-85.3,36.8-85.9,83.5c-0.5,34,19.5,65.1,50.6,78.8c9.7,4.3,21,2.2,28.5-5.3C514.7,256.1,536.3,247.2,558.8,247.2z"/>
<circle class="st5" cx="515.2" cy="193.6" r="28"/>
<circle class="st2" cx="454.4" cy="187.1" r="3.3"/>
<circle class="st2" cx="345.6" cy="190.2" r="3.3"/>
<circle class="st2" cx="472" cy="152.9" r="3.3"/>
<circle class="st2" cx="471.9" cy="248" r="3.3"/>
<circle class="st2" cx="537.2" cy="146.1" r="3.3"/>
<circle class="st2" cx="324.2" cy="236.3" r="3.3"/>
<circle class="st2" cx="348.3" cy="283.7" r="3.3"/>
<ellipse transform="matrix(0.1602 -0.9871 0.9871 0.1602 133.5004 736.7108)" class="st3" cx="499.7" cy="289.9" rx="12.4" ry="12.4"/>
<path class="st1" d="M509,290.7c0,5.2-4.2,9.3-9.3,9.3c-5.1,0-9.3-4.2-9.3-9.3"/>
<path class="st1" d="M490.4,289.2c0-5.2,4.2-9.3,9.3-9.3c5.1,0,9.3,4.2,9.3,9.3"/>
<ellipse class="st3" cx="495" cy="285.7" rx="0.8" ry="1.2"/>
<ellipse class="st3" cx="499.7" cy="284.1" rx="0.8" ry="1.2"/>
<ellipse class="st3" cx="499.7" cy="294.2" rx="0.8" ry="1.2"/>
<ellipse class="st3" cx="504.4" cy="288" rx="0.8" ry="1.2"/>
<ellipse class="st3" cx="503.6" cy="296.6" rx="0.8" ry="1.2"/>
<ellipse class="st3" cx="494.3" cy="292.7" rx="0.8" ry="1.2"/>
<circle class="st3" cx="524.6" cy="256.5" r="12.4"/>
<path class="st1" d="M533.9,257.3c0,5.2-4.2,9.3-9.3,9.3s-9.3-4.2-9.3-9.3"/>
<path class="st1" d="M515.2,255.7c0-5.2,4.2-9.3,9.3-9.3s9.3,4.2,9.3,9.3"/>
<ellipse class="st3" cx="519.9" cy="252.2" rx="0.8" ry="1.2"/>
<ellipse class="st3" cx="524.6" cy="250.7" rx="0.8" ry="1.2"/>
<ellipse class="st3" cx="524.6" cy="260.8" rx="0.8" ry="1.2"/>
<ellipse class="st3" cx="529.2" cy="254.6" rx="0.8" ry="1.2"/>
<ellipse class="st3" cx="528.5" cy="263.1" rx="0.8" ry="1.2"/>
<ellipse class="st3" cx="519.1" cy="259.2" rx="0.8" ry="1.2"/>
<circle class="st0" cx="549.4" cy="273.6" r="12.4"/>
<path class="st1" d="M558.8,274.4c0,5.2-4.2,9.3-9.3,9.3s-9.3-4.2-9.3-9.3"/>
<path class="st1" d="M540.1,272.8c0-5.2,4.2-9.3,9.3-9.3s9.3,4.2,9.3,9.3"/>
<ellipse class="st0" cx="544.8" cy="269.3" rx="0.8" ry="1.2"/>
<ellipse class="st0" cx="549.4" cy="267.8" rx="0.8" ry="1.2"/>
<ellipse class="st0" cx="549.4" cy="277.9" rx="0.8" ry="1.2"/>
<ellipse class="st0" cx="554.1" cy="271.7" rx="0.8" ry="1.2"/>
<ellipse class="st0" cx="553.3" cy="280.2" rx="0.8" ry="1.2"/>
<ellipse class="st0" cx="544" cy="276.3" rx="0.8" ry="1.2"/>
<circle class="st0" cx="487.3" cy="275.2" r="12.4"/>
<path class="st1" d="M496.6,276c0,5.2-4.2,9.3-9.3,9.3c-5.1,0-9.3-4.2-9.3-9.3"/>
<path class="st1" d="M477.9,274.4c0-5.2,4.2-9.3,9.3-9.3c5.1,0,9.3,4.2,9.3,9.3"/>
<ellipse class="st0" cx="482.6" cy="270.9" rx="0.8" ry="1.2"/>
<ellipse class="st0" cx="487.3" cy="269.3" rx="0.8" ry="1.2"/>
<ellipse class="st0" cx="487.3" cy="279.5" rx="0.8" ry="1.2"/>
<ellipse class="st0" cx="491.9" cy="273.2" rx="0.8" ry="1.2"/>
<ellipse class="st0" cx="491.1" cy="281.8" rx="0.8" ry="1.2"/>
<ellipse class="st0" cx="481.8" cy="277.9" rx="0.8" ry="1.2"/>
<ellipse transform="matrix(0.1602 -0.9871 0.9871 0.1602 155.6974 744.2004)" class="st0" cx="515.2" cy="280.6" rx="12.4" ry="12.4"/>
<path class="st1" d="M524.6,281.4c0,5.2-4.2,9.3-9.3,9.3c-5.2,0-9.3-4.2-9.3-9.3l0,0"/>
<path class="st1" d="M505.9,279.8c0-5.2,4.2-9.3,9.3-9.3c5.2,0,9.3,4.2,9.3,9.3l0,0"/>
<ellipse class="st0" cx="510.6" cy="276.3" rx="0.8" ry="1.2"/>
<ellipse class="st0" cx="515.2" cy="274.8" rx="0.8" ry="1.2"/>
<ellipse class="st0" cx="515.2" cy="284.9" rx="0.8" ry="1.2"/>
<ellipse class="st0" cx="519.9" cy="278.7" rx="0.8" ry="1.2"/>
<ellipse class="st0" cx="519.1" cy="287.2" rx="0.8" ry="1.2"/>
<ellipse class="st0" cx="509.8" cy="283.3" rx="0.8" ry="1.2"/>
<circle class="st3" cx="534.7" cy="293.8" r="12.4"/>
<path class="st1" d="M544,294.6c0,5.2-4.2,9.3-9.3,9.3s-9.3-4.2-9.3-9.3"/>
<path class="st1" d="M525.4,293.1c0-5.2,4.2-9.3,9.3-9.3s9.3,4.2,9.3,9.3l0,0"/>
<ellipse class="st3" cx="530" cy="289.6" rx="0.8" ry="1.2"/>
<ellipse class="st3" cx="534.7" cy="288" rx="0.8" ry="1.2"/>
<ellipse class="st3" cx="534.7" cy="298.1" rx="0.8" ry="1.2"/>
<ellipse class="st3" cx="539.3" cy="291.9" rx="0.8" ry="1.2"/>
<ellipse class="st3" cx="538.6" cy="300.4" rx="0.8" ry="1.2"/>
<ellipse class="st3" cx="529.2" cy="296.6" rx="0.8" ry="1.2"/>
<circle class="st2" cx="374.7" cy="246.4" r="3.3"/>
<polygon class="st5" points="464.3,366.1 385.2,344.1 388.2,332.9 467.4,354.8 "/>
<path class="st5" d="M452.7,362.3c-27.1,5.2-55,5.2-82.1,0v-11.7c27.2,4.5,54.9,4.5,82.1,0V362.3z"/>
<path class="st5" d="M461.2,327.3c-27.1,5.2-55,5.2-82.1,0v-11.7c27.2,4.5,54.9,4.5,82.1,0V327.3z"/>
<path class="st5" d="M489.6,341.3c-27.1,5.2-55,5.2-82.1,0v-11.7c27.2,4.5,54.9,4.5,82.1,0V341.3z"/>
<path class="st5" d="M496.5,354.5c-27.1,5.2-55,5.2-82.1,0v-11.7c27.2,4.5,54.9,4.5,82.1,0V354.5z"/>
<polygon class="st5" points="520.5,371.8 439.6,385.4 437.7,373.9 518.7,360.3 "/>
<path class="st5" d="M508.4,373.3c-22.5,16.2-47.8,28-74.6,34.8l-4.8-10.6c26.6-7.4,51.8-19.2,74.6-34.8L508.4,373.3z"/>
<path class="st5" d="M501.7,337.9c-22.5,16.2-47.8,28-74.6,34.8l-4.8-10.6c26.6-7.4,51.8-19.2,74.6-34.8L501.7,337.9z"/>
<path class="st5" d="M533.2,338.6c-22.5,16.2-47.8,28-74.6,34.8l-4.8-10.6c26.6-7.4,51.8-19.2,74.6-34.8L533.2,338.6z"/>
<path class="st5" d="M545,347.7c-22.5,16.2-47.8,28-74.6,34.8l-4.8-10.6c26.6-7.4,51.8-19.2,74.6-34.8L545,347.7z"/>
<rect x="443" y="324.9" class="st6" width="3.9" height="3.9"/>
<rect x="454.6" y="392.6" class="st6" width="3.9" height="3.9"/>
<rect x="392.4" y="324.9" class="st6" width="3.9" height="3.9"/>
<rect x="482.6" y="373.1" class="st6" width="3.9" height="3.9"/>
<rect x="484.9" y="350.6" class="st6" width="3.9" height="3.9"/>
<rect x="420" y="337" transform="matrix(0.5614 -0.8275 0.8275 0.5614 -96.2447 497.827)" class="st6" width="3.1" height="5.4"/>
<rect x="465.8" y="345.5" transform="matrix(0.5614 -0.8275 0.8275 0.5614 -83.1678 539.4854)" class="st6" width="3.1" height="5.4"/>
<rect x="409.9" y="360.3" transform="matrix(0.5614 -0.8275 0.8275 0.5614 -119.9668 499.6734)" class="st6" width="3.1" height="5.4"/>
<rect x="440.6" y="358.4" transform="matrix(0.5614 -0.8275 0.8275 0.5614 -103.4424 524.7364)" class="st6" width="5.4" height="3.1"/>
<rect x="461.6" y="363.8" transform="matrix(0.5614 -0.8275 0.8275 0.5614 -98.7257 544.4531)" class="st6" width="5.4" height="3.1"/>
<rect x="517.5" y="345.1" transform="matrix(0.5614 -0.8275 0.8275 0.5614 -58.7114 582.5527)" class="st6" width="5.4" height="3.1"/>
</svg>
