<svg id="flat" height="512" viewBox="0 0 512 512" width="512" xmlns="http://www.w3.org/2000/svg"><path d="m168 24h16a0 0 0 0 1 0 0v40a48 48 0 0 1 -48 48h-16a0 0 0 0 1 0 0v-40a48 48 0 0 1 48-48z" fill="#acc221"/><path d="m64 88h40a0 0 0 0 1 0 0v16a40 40 0 0 1 -40 40h-40a0 0 0 0 1 0 0v-16a40 40 0 0 1 40-40z" fill="#acc221"/><path d="m134.4 112-26.7479-44.57983a40 40 0 0 0 -34.29972-19.42017h-41.35238l14.26685 38.04494a40 40 0 0 0 37.45315 25.95506z" fill="#b9cd2a"/><path d="m148.686 94.62744a65.50827 65.50827 0 0 0 19.314-46.62744h-16a49.61468 49.61468 0 0 1 -14.62744 35.314l-18.23725 18.23731-50.48541-36.06108-9.2998 13.01954 54.3833 38.84523 29.42822 58.85645 14.31055-7.15528-27.73828-55.47656z" fill="#93ad10"/><path d="m140.72791 166.76326 11.27226-6.76336a126.1 126.1 0 0 0 54.751-68.25353l6.01254-18.03762a14.19881 14.19881 0 0 1 13.47021-9.70875 13.76605 13.76605 0 0 1 13.76608 13.76606 13.76616 13.76616 0 0 1 -.70643 4.35321l-10.64452 31.93357a128.05 128.05 0 0 1 -44.64889 61.947l-8.00016 6.00016z" fill="#b1712c"/><path d="m200 152 24 8 16-8v16h16v16l16 8-8 24 16 8-8 24 16 8-8 16 16 16-8 16 8 16-8 16 8 16-8 16 8 24-16 8 8 16-16 8v16l-16 8v16h-16l-8 16-16-8-16 16-8-16-16 16-16-16-8 16-16-8-16 8-16-16-16 8-8-16h-16v-16l-16-8v-16l-16-8 8-16-16-8 8-24-8-16 8-16-8-16 8-16-8-16 16-16-8-16 16-8-8-24 16-8 8-16h16v-24h16l16-16 16 8 16-8 16 8 16-8 16 8z" fill="#b9cd2a"/><path d="m480 368-16 8 8 24-16 8-8 24h-16l-8 16h-24l-8 16h-16l-8 16-24-8-16 16-16-16-24 8-8-16h-16l-8-16h-24l-8-16h-16l-8-24-16-8 8-24-16-8 8-16-16-16 80-32 32 16h96l32-16 80 32-16 16z" fill="#cde046"/><path d="m318.719 364.802-30.719 51.198 16 24h48l16-24-30.719-51.198z" fill="#ffc431"/><path d="m297.473 348.843-57.473 19.157-8 32 24 24 32-8 27.871-46.451z" fill="#ffb401"/><path d="m297.47 320v28.84l-57.47 19.16-24-8-14.9-37.24 46.9-18.76 32 16z" fill="#ffc431"/><path d="m358.528 348.843 57.472 19.157 8 32-24 24-32-8-30.719-51.198z" fill="#ffb401"/><path d="m454.9 322.76-14.9 37.24-24 8-57.47-19.16v-28.84h17.47l32-16z" fill="#ffc431"/><path d="m256 344h-16a8 8 0 0 1 0-16h16a8 8 0 0 1 0 16z" fill="#ffb401"/><path d="m264 400a8 8 0 0 1 -5.65674-13.65674l11.1626-11.1626a7.99984 7.99984 0 0 1 11.31348 11.31348l-11.1626 11.1626a7.97507 7.97507 0 0 1 -5.65674 2.34326z" fill="#ffa100"/><path d="m328 416a7.99977 7.99977 0 0 1 -8-8v-32a8 8 0 0 1 16 0v32a7.99977 7.99977 0 0 1 -8 8z" fill="#ffb401"/><path d="m392 400a7.97507 7.97507 0 0 1 -5.65674-2.34326l-11.1626-11.1626a7.99984 7.99984 0 0 1 11.31348-11.31348l11.1626 11.1626a8 8 0 0 1 -5.65674 13.65674z" fill="#ffa100"/><path d="m416 344h-16a8 8 0 0 1 0-16h16a8 8 0 0 1 0 16z" fill="#ffb401"/><g fill="#a2ba18"><path d="m84.686 416h22.627v16h-22.627z" transform="matrix(.707 -.707 .707 .707 -271.696 192.069)"/><path d="m116 447.056h16v17.889h-16z" transform="matrix(.894 -.447 .447 .894 -190.838 103.596)"/><path d="m144 420.686h16v22.627h-16z" transform="matrix(.707 -.707 .707 .707 -260.95 234.01)"/><path d="m52 383.056h16v17.889h-16z" transform="matrix(.894 -.447 .447 .894 -168.973 68.217)"/><path d="m87.056 372h17.889v16h-17.889z" transform="matrix(.894 -.447 .447 .894 -159.806 83.05)"/><path d="m124 383.056h16v17.889h-16z" transform="matrix(.894 -.447 .447 .894 -161.372 100.417)"/><path d="m128 348.686h16v22.627h-16z" transform="matrix(.707 -.707 .707 .707 -214.725 201.608)"/><path d="m127.056 316h17.889v16h-17.889z" transform="matrix(.894 -.447 .447 .894 -130.539 95.027)"/><path d="m84 327.056h16v17.889h-16z" transform="matrix(.894 -.447 .447 .894 -140.551 76.616)"/><path d="m59.056 344h17.889v16h-17.889z" transform="matrix(.447 -.894 .894 .447 -277.249 255.402)"/><path d="m44 311.056h16v17.889h-16z" transform="matrix(.894 -.447 .447 .894 -137.619 57.038)"/><path d="m71.056 284h17.889v16h-17.889z" transform="matrix(.894 -.447 .447 .894 -122.141 66.604)"/><path d="m104 280h16v16h-16z"/><path d="m79.056 220h17.889v16h-17.889z" transform="matrix(.894 -.447 .447 .894 -92.674 63.425)"/><path d="m112 216h16v16h-16z"/><path d="m144 275.056h16v17.889h-16z" transform="matrix(.447 -.894 .894 .447 -169.994 292.944)"/><path d="m172.686 288h22.627v16h-22.627z" transform="matrix(.707 -.707 .707 .707 -155.411 216.804)"/><path d="m188 207.056h16v17.889h-16z" transform="matrix(.894 -.447 .447 .894 -75.906 110.458)"/><path d="m212.686 232h22.627v16h-22.627z" transform="matrix(.707 -.707 .707 .707 -104.098 228.686)"/><path d="m236 255.056h16v17.889h-16z" transform="matrix(.894 -.447 .447 .894 -92.305 136.991)"/><path d="m135.056 244h17.889v16h-17.889z" transform="matrix(.894 -.447 .447 .894 -97.495 91.003)"/><path d="m172 255.056h16v17.889h-16z" transform="matrix(.894 -.447 .447 .894 -99.061 108.37)"/><path d="m140.686 200h22.627v16h-22.627z" transform="matrix(.707 -.707 .707 .707 -102.558 168.402)"/><path d="m164 223.056h16v17.889h-16z" transform="matrix(.894 -.447 .447 .894 -85.595 101.414)"/></g><path d="m280 320 7.20893 25.23126a42.42332 42.42332 0 0 0 40.79107 30.76874 42.42332 42.42332 0 0 0 40.791-30.76874l7.209-25.23126z" fill="#ffd873"/></svg>