<svg id="Capa_1" enable-background="new 0 0 512 512" height="512" viewBox="0 0 512 512" width="512" xmlns="http://www.w3.org/2000/svg"><g><path d="m164.929 347.071-31.82-31.82-119.949 119.95c-17.546 17.546-17.546 46.093 0 63.64 17.546 17.546 46.093 17.546 63.64 0l119.949-119.949z" fill="#ecf2ff"/><path d="m76.799 498.84 119.949-119.949-31.82-31.82-151.768 151.769c17.546 17.547 46.093 17.547 63.639 0z" fill="#d9e5ff"/><path d="m310.072 343.721-70.897-70.897-71.288-71.288-34.778-13.565-42.426 42.426c-17.546 17.546-17.546 46.093 0 63.64l63.64 63.64 63.64 63.64c17.546 17.546 46.093 17.546 63.64 0l42.426-42.426z" fill="#c68cff"/><path d="m281.602 421.317 42.426-42.426-13.956-35.169-70.897-70.897-84.853 84.853 63.64 63.64c17.546 17.546 46.093 17.546 63.64-.001z" fill="#aa80ff"/><path d="m385.323 270.48-71.902-71.901-69.278-69.279-36.788-15.574-74.246 74.246 95.46 95.459 95.459 95.46 74.246-74.246z" fill="#a7ffff"/><path d="m398.274 304.645-12.951-34.165-71.902-71.901-84.852 84.852 95.459 95.46z" fill="#80e9ff"/><path d="m461.578 198.243-73.91-73.911-65.258-65.258-40.808-19.594-74.247 74.246 95.46 95.459 95.459 95.46 74.246-74.247z" fill="#ffdf40"/><path d="m472.52 230.398-10.942-32.155-73.91-73.911-84.853 84.853 95.459 95.46z" fill="#ffbe40"/><g><path d="m472.52 39.48c-52.639-52.639-138.279-52.639-190.919 0l74.246 74.246c5.852 5.852 5.852 15.361 0 21.213l-31.82 31.82c-9.368 9.368-13.57 21.859-12.937 34.15.554 10.731 4.758 21.31 12.937 29.489 17.546 17.546 46.093 17.546 63.64 0l31.82-31.82c5.852-5.852 15.361-5.852 21.213 0l31.82 31.82c52.64-52.639 52.64-138.279 0-190.918z" fill="#ff73b9"/><path d="m387.668 230.398 31.82-31.82c5.852-5.852 15.361-5.852 21.213 0l31.82 31.82c52.639-52.639 52.639-138.279 0-190.919l-161.43 161.43c.554 10.731 4.758 21.31 12.937 29.489 17.546 17.547 46.093 17.547 63.64 0z" fill="#f25588"/></g></g></svg>