<svg id="Capa_1" enable-background="new 0 0 512 512" height="512" viewBox="0 0 512 512" width="512" xmlns="http://www.w3.org/2000/svg"><g><path d="m426.694 127.832c.103-11.202-1.962-22.488-5.602-33.043-5.687-16.49-16.006-31.058-30.338-41.022-1.585-1.102-3.676-1.166-5.324-.16-14.696 8.97-25.776 22.65-32.457 38.509-5.433 12.894-8.823 27.475-7.327 41.556 2.384 22.426 11.961 44.782 29.426 59.718 2.495 2.133 5.292 4.155 8.036 5.946 1.603 1.046 3.675 1.052 5.282.013 4.099-2.65 7.946-5.69 11.477-9.062 16.557-15.812 26.615-39.46 26.827-62.455z" fill="#91deb6"/><path d="m426.695 127.834c-.217 22.989-10.267 46.639-26.827 62.446-3.529 3.374-7.378 6.418-11.474 9.07-1.61 1.042-3.684 1.032-5.283-.01-1.269-.825-2.58-1.692-2.879-1.899-.743-.537-1.465-1.083-2.187-1.63.784-.681 1.548-1.393 2.301-2.105 16.561-15.818 26.621-39.467 26.827-62.456.103-11.206-1.96-22.494-5.603-33.049-5.066-14.693-13.806-27.859-25.796-37.589 3.013-2.58 6.243-4.922 9.658-7.006 1.641-1.001 3.735-.939 5.324.165 14.332 9.957 24.65 24.526 30.336 41.015 3.642 10.555 5.706 21.843 5.603 33.048z" fill="#6ed5a1"/><path d="m453.845 202.508c9.89-5.263 18.816-12.47 26.349-20.712 11.767-12.876 19.633-28.903 21.536-46.254.211-1.919-.733-3.786-2.404-4.753-14.903-8.622-32.214-11.818-49.338-10.108-13.922 1.39-28.351 5.38-40.005 13.424-18.56 12.811-33.622 31.908-38.395 54.387-.78 3.671-3.561 11.991 1.131 14.546 4.287 2.334 8.796 4.261 13.446 5.751 21.8 6.988 47.38 4.522 67.68-6.281z" fill="#00c27a"/><path d="m501.729 135.542c-1.899 17.355-9.771 33.38-21.534 46.257-7.532 8.234-16.458 15.446-26.353 20.709-20.296 10.803-45.875 13.269-67.677 6.284-4.654-1.496-9.163-3.415-13.445-5.758-1.073-.578-1.878-1.537-2.27-2.652 21.41 6.304 46.154 3.694 65.903-6.82 9.895-5.262 18.82-12.475 26.353-20.709 11.763-12.877 19.636-28.912 21.534-46.257.103-.918-.062-1.826-.444-2.621 5.376 1.692 10.587 3.952 15.529 6.81 1.672.97 2.611 2.838 2.404 4.757z" fill="#08b865"/><path d="m318.143 202.508c-9.89-5.263-18.816-12.47-26.348-20.712-11.767-12.876-19.633-28.903-21.536-46.254-.211-1.919.733-3.786 2.404-4.753 14.903-8.622 32.214-11.818 49.338-10.108 13.922 1.39 28.351 5.38 40.005 13.424 18.56 12.811 33.622 31.908 38.395 54.387.79 3.718 3.66 11.937-1.131 14.546-4.287 2.334-8.796 4.261-13.446 5.751-21.801 6.988-47.381 4.522-67.681-6.281z" fill="#00c27a"/><path d="m399.269 203.034c-2.879 1.579-5.871 2.961-8.936 4.158-.113-.547-.227-1.094-.341-1.641-4.767-22.483-19.832-41.572-38.394-54.388-11.649-8.048-26.074-12.031-40.004-13.424-13.672-1.372-27.467.392-40.066 5.561-.557-2.549-.98-5.138-1.269-7.759-.217-1.919.733-3.787 2.404-4.757 14.9-8.616 32.214-11.814 49.332-10.102 13.93 1.383 28.355 5.376 40.014 13.424 18.552 12.805 33.617 31.904 38.394 54.387.454 2.136.815 4.292 1.083 6.47.041.361.175 1.919.299 3.426.146 1.91-.834 3.737-2.516 4.645z" fill="#08b865"/><path d="m106.991 180.796c-7.848-7.994-17.289-14.514-27.327-19.404-15.681-7.639-33.28-10.643-50.459-7.555-1.901.342-3.424 1.775-3.878 3.652-4.049 16.734-2.211 34.242 4.279 50.18 5.276 12.959 13.189 25.667 24.204 34.565 17.538 14.168 40.11 23.203 63.014 21.422 3.97-.309 12.564-.143 13.65-5.206 1.025-4.773 1.595-9.643 1.708-14.524.529-22.887-9.081-46.721-25.191-63.13z" fill="#91deb6"/><path d="m132.181 243.925c-.113 4.881-.681 9.751-1.702 14.528-.402 1.868-1.878 3.333-3.746 3.725-1.476.31-3.013.629-3.374.691-1.228.196-2.466.371-3.704.516.083-1.145.134-2.301.165-3.457.526-22.886-9.08-46.721-25.197-63.137-7.842-7.986-17.283-14.507-27.323-19.398-13.672-6.655-28.788-9.802-43.822-8.451.32-3.838.929-7.666 1.847-11.453.454-1.878 1.981-3.312 3.88-3.653 17.18-3.085 34.783-.083 50.456 7.553 10.04 4.891 19.481 11.412 27.333 19.409 16.107 16.406 25.713 40.241 25.187 63.127z" fill="#6ed5a1"/><path d="m178.993 214.401c3.271-10.715 4.487-22.123 3.985-33.277-.784-17.425-6.555-34.32-17.478-47.935-1.208-1.506-3.195-2.159-5.061-1.661-16.635 4.441-31.135 14.422-42.034 27.74-8.862 10.827-16.243 23.851-18.796 37.78-2.329 12.708-2.391 25.911.298 38.569 1.61 7.581 3.869 15.191 7.524 22.057 2.158 4.054 8.935 16.129 14.572 14.467 4.682-1.381 9.232-3.207 13.574-5.441 20.357-10.475 36.701-30.307 43.416-52.299z" fill="#00c27a"/><path d="m178.995 214.405c-6.717 21.988-23.061 41.82-43.419 52.293-4.344 2.239-8.894 4.065-13.569 5.438-1.837.547-3.828-.041-5.066-1.506-.98-1.145-1.991-2.342-2.218-2.631-.268-.341-.526-.691-.784-1.032.186-.083.361-.175.547-.268 20.358-10.473 36.702-30.305 43.419-52.293 3.271-10.721 4.488-22.122 3.983-33.276-.722-16.024-5.654-31.605-14.941-44.585 4.303-2.074 8.822-3.766 13.496-5.015 1.868-.495 3.849.155 5.056 1.661 10.927 13.61 16.695 30.511 17.479 47.939.505 11.152-.712 22.554-3.983 33.275z" fill="#08b865"/><path d="m83.038 310.356c-10.715 3.271-22.123 4.487-33.277 3.985-17.425-.784-34.32-6.555-47.935-17.478-1.506-1.208-2.159-3.195-1.661-5.061 4.441-16.635 14.422-31.135 27.74-42.034 10.827-8.862 23.851-16.243 37.78-18.796 22.183-4.065 46.337-1.211 65.607 11.308 2.833 1.841 5.421 3.845 7.978 6.023 1.458 1.241 2.05 3.226 1.508 5.062-1.381 4.682-3.207 9.232-5.441 13.574-10.474 20.358-30.306 36.702-52.299 43.417z" fill="#00c27a"/><path d="m140.776 253.366c-1.176 3.993-2.683 7.893-4.478 11.639-.454-.31-.918-.609-1.372-.908-19.264-12.516-43.419-15.374-65.603-11.309-13.93 2.559-26.951 9.936-37.785 18.8-9.947 8.141-18.036 18.305-23.34 29.861-2.187-1.403-4.313-2.93-6.366-4.581-1.506-1.218-2.167-3.199-1.661-5.066 4.437-16.633 14.415-31.13 27.735-42.037 10.824-8.863 23.856-16.241 37.775-18.789 22.184-4.065 46.339-1.218 65.614 11.309 1.837 1.187 3.611 2.456 5.345 3.807.279.217 1.486 1.228 2.631 2.208 1.454 1.249 2.052 3.23 1.505 5.066z" fill="#08b865"/><path d="m512 285.927c0-69.591-56.415-126.006-126.006-126.006s-126.006 56.415-126.006 126.006c0 22.353 6.163 41.721 16.016 61.508 13.841 27.793 43.935 78.43 90.431 106.253 12.014 7.189 27.028 7.227 39.058.065 27.789-16.544 50.351-41.578 68.297-68.18 4.7-6.967 9.124-14.122 13.281-21.426 13.9-24.423 24.929-49.509 24.929-78.22z" fill="#e94444"/><path d="m511.996 285.931c0 28.705-11.02 53.789-24.929 78.212-4.148 7.305-8.574 14.466-13.28 21.431-17.943 26.6-40.509 51.633-68.297 68.183-11.649 6.934-26.085 7.12-37.899.598 5.716-.444 11.36-2.187 16.468-5.231 27.787-16.54 50.353-41.572 68.297-68.173 4.705-6.965 9.121-14.126 13.28-21.431 13.899-24.423 24.929-49.507 24.929-78.212 0-56.606-37.321-104.493-88.696-120.393 62.106 7.811 110.127 60.795 110.127 125.016z" fill="#d83131"/><g><g><g><path d="m420.104 341.775c-4.142 0-7.5-3.358-7.5-7.5v-13.81c0-4.142 3.358-7.5 7.5-7.5s7.5 3.358 7.5 7.5v13.81c0 4.142-3.357 7.5-7.5 7.5z" fill="#cc2121"/></g><g><path d="m351.883 341.775c-4.142 0-7.5-3.358-7.5-7.5v-13.81c0-4.142 3.358-7.5 7.5-7.5s7.5 3.358 7.5 7.5v13.81c0 4.142-3.358 7.5-7.5 7.5z" fill="#cc2121"/></g></g><g><g><g><path d="m385.994 288.166c-4.142 0-7.5-3.358-7.5-7.5v-13.81c0-4.142 3.358-7.5 7.5-7.5s7.5 3.358 7.5 7.5v13.81c0 4.142-3.358 7.5-7.5 7.5z" fill="#cc2121"/></g><g><g><path d="m458.854 288.166c-4.142 0-7.5-3.358-7.5-7.5v-13.81c0-4.142 3.358-7.5 7.5-7.5s7.5 3.358 7.5 7.5v13.81c0 4.142-3.358 7.5-7.5 7.5z" fill="#cc2121"/></g></g></g></g><g><g><g><path d="m385.994 388.329c-4.142 0-7.5-3.358-7.5-7.5v-13.81c0-4.142 3.358-7.5 7.5-7.5s7.5 3.358 7.5 7.5v13.81c0 4.142-3.358 7.5-7.5 7.5z" fill="#cc2121"/></g></g></g></g><path d="m279.102 232.265c-49.208-49.208-128.991-49.208-178.199 0s-49.208 128.991 0 178.2c15.806 15.806 33.859 25.144 54.818 32.167 29.439 9.865 86.525 24.392 139.076 11.188 13.578-3.412 24.222-14.002 27.664-27.573 7.952-31.348 6.203-65.004.083-96.504-1.603-8.25-3.534-16.437-5.759-24.542-7.442-27.098-17.382-52.634-37.683-72.936z" fill="#e94444"/><path d="m322.46 426.249c-3.446 13.568-14.084 24.155-27.663 27.57-8.605 2.167-17.314 3.58-26.023 4.396 1.465-.32 2.93-.66 4.396-1.032 13.579-3.415 24.217-14.002 27.663-27.57 7.955-31.347 6.201-65.005.083-96.507-1.599-8.255-3.529-16.437-5.758-24.537-7.439-27.106-17.386-52.633-37.682-72.94-26.786-26.786-62.632-38.993-97.673-36.62 41.397-10.174 86.952.908 119.3 33.256 20.296 20.296 30.243 45.834 37.682 72.94 2.229 8.1 4.158 16.282 5.758 24.537 6.118 31.502 7.872 65.16-.083 96.507z" fill="#d83131"/><g><g><g><path d="m248.309 338.932c-1.919 0-3.839-.732-5.303-2.197l-9.765-9.765c-2.929-2.929-2.929-7.678 0-10.606 2.929-2.929 7.678-2.929 10.606 0l9.765 9.765c2.929 2.929 2.929 7.678 0 10.606-1.464 1.464-3.383 2.197-5.303 2.197z" fill="#cc2121"/></g><g><path d="m200.069 387.172c-1.919 0-3.839-.732-5.303-2.197l-9.765-9.766c-2.929-2.929-2.929-7.678 0-10.606 2.929-2.929 7.678-2.929 10.606 0l9.765 9.766c2.929 2.929 2.929 7.678 0 10.606-1.464 1.464-3.384 2.197-5.303 2.197z" fill="#cc2121"/></g></g><g><g><g><path d="m186.282 325.145c-1.919 0-3.839-.732-5.303-2.197l-9.765-9.765c-2.929-2.929-2.929-7.678 0-10.606 2.929-2.929 7.678-2.929 10.606 0l9.765 9.765c2.929 2.929 2.929 7.678 0 10.606-1.464 1.464-3.384 2.197-5.303 2.197z" fill="#cc2121"/></g><g><g><path d="m237.802 273.625c-1.919 0-3.839-.732-5.303-2.197l-9.765-9.765c-2.929-2.929-2.929-7.678 0-10.606 2.929-2.929 7.678-2.929 10.606 0l9.765 9.765c2.929 2.929 2.929 7.678 0 10.606-1.464 1.464-3.384 2.197-5.303 2.197z" fill="#cc2121"/></g><g><path d="m134.762 376.665c-1.919 0-3.839-.732-5.303-2.197l-9.765-9.765c-2.929-2.929-2.929-7.678 0-10.606 2.929-2.929 7.678-2.929 10.606 0l9.765 9.765c2.929 2.929 2.929 7.678 0 10.606-1.464 1.464-3.383 2.197-5.303 2.197z" fill="#cc2121"/></g></g></g></g><g><g><g><path d="m257.108 395.971c-1.919 0-3.839-.732-5.303-2.197l-9.765-9.766c-2.929-2.929-2.929-7.678 0-10.606 2.929-2.929 7.678-2.93 10.606 0l9.765 9.766c2.929 2.929 2.929 7.678 0 10.606-1.464 1.464-3.384 2.197-5.303 2.197z" fill="#cc2121"/></g></g></g></g></g></svg>