<svg id="Capa_1" enable-background="new 0 0 512 512" height="512" viewBox="0 0 512 512" width="512" xmlns="http://www.w3.org/2000/svg"><g><g><path d="m125.982 222.009c-4.096 0-7.511-3.219-7.711-7.357-1.557-32.105 12.495-40.788 22.756-47.128 1.595-.986 3.101-1.916 4.396-2.853 3.458-2.501 8.287-1.725 10.788 1.735s1.724 8.293-1.734 10.795c-1.752 1.267-3.571 2.392-5.331 3.479-8.883 5.489-16.555 10.229-15.441 33.223.207 4.265-3.081 7.89-7.343 8.096-.127.007-.253.01-.38.01z" fill="#fdb440"/></g><g><path clip-rule="evenodd" d="m488.81 280.332-68.057-215.67-10.511-33.175c-2.108-6.689-9.888-11.712-16.895-11.712h-17.787-26.843l-19.093 17.093 19.093 19.977h19.598c7.78 0 12.352 4.221 13.956 9.305l6.651 21.017 24.645 78.033 21.379 67.688 14.995 47.444 21.023 19.382z" fill="#e0d2ce" fill-rule="evenodd"/></g><g><path clip-rule="evenodd" d="m483.851 452.57v-101.488l-228.163-25.208-226.975 25.208v101.488c0 29.935 24.467 54.43 54.368 54.43h346.431c29.901 0 54.339-24.495 54.339-54.43z" fill="#fece85" fill-rule="evenodd"/></g><g><path clip-rule="evenodd" d="m53.953 351.082h-25.24v26.903h382.894c22.448 0 22.389 12.515 22.389 32.848v91.827c0 1.397-.03 2.794-.148 4.162 27.882-2.229 50.003-25.773 50.003-54.252v-101.488h-65.117-43.263c-145.022 0-198.707 0-321.518 0z" fill="#fdb440" fill-rule="evenodd"/></g><g><path clip-rule="evenodd" d="m199.123 241.508c-5.137-26.368-19.568-45.809-57.159-30.738-5.879 2.348-10.927 3.508-15.975 3.508s-10.096-1.159-15.975-3.508c-9.502-3.835-17.549-5.44-24.289-5.291l-31.772 32.997 8.552 40.488-.445 1.367 69.304 35.375 56.803-35.375 14.312-15.28z" fill="#fe0263" fill-rule="evenodd"/></g><g><path clip-rule="evenodd" d="m449.941 280.332-14.995-47.444-21.379-67.688c-29.515.357-51.726 26.844-49.825 57.7-24.497-1.516-45.312 9.661-56.833 27.824.148.684.238 1.338.238 2.051l-28.038 27.557 109.784 31.675z" fill="#80d261" fill-rule="evenodd"/></g><g><path clip-rule="evenodd" d="m285.946 241.27c4.009-28.062-3.237-56.392-14.787-84.217l-22.864-12.515-24.764 12.515c-11.551 27.824-18.172 56.154-14.193 84.217l38.957 10.404z" fill="#e0d2ce" fill-rule="evenodd"/></g><g><path clip-rule="evenodd" d="m284.966 148.046v-16.261c0-4.935-4.038-8.978-8.997-8.978h-57.279c-4.929 0-8.997 4.043-8.997 8.978v16.261c0 4.964 4.068 9.007 8.997 9.007h4.84 47.628 4.81c4.959.001 8.998-4.042 8.998-9.007z" fill="#80d261" fill-rule="evenodd"/></g><g><path clip-rule="evenodd" d="m284.966 148.046v-16.261c0-4.935-4.038-8.978-8.997-8.978h-20.37c4.929 0 8.997 4.043 8.997 8.978v16.261c0 1.724-.505 3.329-1.336 4.697-1.574 2.586-4.424 4.31-7.661 4.31h15.559 4.81c4.959.001 8.998-4.042 8.998-9.007z" fill="#4fc122" fill-rule="evenodd"/></g><g><path clip-rule="evenodd" d="m285.946 241.27c4.009-28.062-3.237-56.392-14.787-84.217h-15.559-32.07c-2.643 6.391-5.048 12.812-7.097 19.233h21.438c13.57 0 20.577-1.427 24.616 12.842 4.899 17.271 5.731 34.721 6.206 52.141h17.253z" fill="#b8acac" fill-rule="evenodd"/></g><g><path clip-rule="evenodd" d="m123.078 87.165 6.651-21.017c1.603-5.083 6.176-9.305 13.956-9.305h19.598l25.18-19.114-25.18-17.955h-26.843-17.786c-7.008 0-14.787 5.024-16.895 11.712l-10.482 33.176-68.087 215.67 23.398 21.017 15.47-21.017.445-1.367 23.22-73.485z" fill="#e0d2ce" fill-rule="evenodd"/></g><g><path clip-rule="evenodd" d="m342.006 71.648c3.682 0 6.711-3.032 6.711-6.718v-8.086-37.07-8.056c0-3.716-3.029-6.718-6.711-6.718h-172.012c-3.682 0-6.711 3.002-6.711 6.718v8.056 37.07 8.086c0 3.686 3.029 6.718 6.711 6.718z" fill="#fe76a8" fill-rule="evenodd"/></g><g><path clip-rule="evenodd" d="m169.994 71.648h172.013c3.682 0 6.711-3.032 6.711-6.718v-8.086-15.458-11.237c0 3.716-3.029 6.718-6.711 6.718h-12.352-142.38-17.281c-3.682 0-6.711-3.002-6.711-6.718v11.237 15.458 8.086c0 3.686 3.029 6.718 6.711 6.718z" fill="#fe3c97" fill-rule="evenodd"/></g><g><path clip-rule="evenodd" d="m488.81 351.082c12.768 0 23.19-10.464 23.19-23.247v-24.257c0-12.783-10.422-23.247-23.19-23.247h-38.868-62.415-12.055-78.034-11.194-232.291-30.763c-12.768.001-23.19 10.464-23.19 23.247v24.257c0 12.783 10.452 23.247 23.19 23.247h5.523 25.239 70.64 90.98 159.898 108.38z" fill="#fe76a8" fill-rule="evenodd"/></g><g><path clip-rule="evenodd" d="m512 327.835v-24.257c0-12.783-10.422-23.247-23.19-23.247h-38.868-31.208c12.768 0 18.232 10.464 18.232 23.247v24.257c0 12.783-5.464 23.247-18.232 23.247h65.117 4.959c12.768 0 23.19-10.464 23.19-23.247z" fill="#fe3c97" fill-rule="evenodd"/></g><g><path clip-rule="evenodd" d="m92.643 319.096 33.583-6.778 5.137-31.986h-69.304-8.106z" fill="#80d261" fill-rule="evenodd"/></g><g><path clip-rule="evenodd" d="m181.901 384.792 26.902-26.933-38.72-60.911-38.72 60.911 26.902 26.933c6.503 6.51 17.133 6.51 23.636 0z" fill="#80d261" fill-rule="evenodd"/></g><g><path clip-rule="evenodd" d="m307.147 280.332v-27.557c0-.713-.089-1.367-.238-2.051-1.128-5.351-6.77-9.453-13.51-9.453h-7.453-76.608-7.453c-7.542 0-13.718 5.172-13.718 11.504v26.189 1.367l54.873 15.22z" fill="#b8acac" fill-rule="evenodd"/></g><g><path clip-rule="evenodd" d="m170.083 319.096 32.068-3.003 6.652-35.761h-5.731-71.709l3.028 30.856z" fill="#80d261" fill-rule="evenodd"/></g><g><path clip-rule="evenodd" d="m247.523 319.096 38.72-38.764h-77.44l3.8 32.937z" fill="#80d261" fill-rule="evenodd"/></g><g><path clip-rule="evenodd" d="m215.573 351.082 31.95-31.986-38.72-38.764-38.72 38.764 38.72 38.764z" fill="#fece85" fill-rule="evenodd"/></g><g><path clip-rule="evenodd" d="m131.363 357.86 38.72-38.764-38.72-38.764-38.72 38.764 31.95 31.986z" fill="#fece85" fill-rule="evenodd"/></g><g><path clip-rule="evenodd" d="m247.523 319.096 38.72-38.764h-43.204l-17.103 17.152z" fill="#4fc122" fill-rule="evenodd"/></g><g><path clip-rule="evenodd" d="m238.882 327.746 8.641-8.651-21.587-21.612c-12.917 12.931-25.833 25.833-38.72 38.764l14.817 14.834 6.77 6.778 6.77-6.778z" fill="#fdb440" fill-rule="evenodd"/></g><g><path clip-rule="evenodd" d="m188.7 377.985 20.102-20.125-6.77-6.778-14.817-14.834-34.8 34.81c-1.366 1.397-2.94 2.467-4.602 3.27l3.652 3.656 6.8 6.807c6.503 6.51 17.133 6.51 23.636 0z" fill="#4fc122" fill-rule="evenodd"/></g><g><path clip-rule="evenodd" d="m307.147 280.332v-27.557c0-.713-.089-1.367-.238-2.051-1.128-5.351-6.77-9.453-13.51-9.453h-7.453-17.252-8.433c4.246 0 8.047 1.635 10.571 4.162 1.485 1.516 2.524 3.329 2.94 5.291.148.684.208 1.338.208 2.051v27.557h12.263 11.194z" fill="#9d9696" fill-rule="evenodd"/></g><g><path clip-rule="evenodd" d="m199.123 241.508c-5.107-26.219-19.419-45.572-56.506-31.005 10.333 5.856 15.797 18.074 18.558 32.284l6.028 37.545h20.963v-1.367-26.189c0-5.531 4.721-10.198 10.957-11.268z" fill="#e30256" fill-rule="evenodd"/></g><g><path clip-rule="evenodd" d="m449.496 278.964-14.55-46.077-8.641-27.408-12.738-40.28c-12.382.149-23.487 4.905-32.069 12.634 4.632 16.112 7.334 35.316 7.334 55.917 0 16.766-1.782 32.611-4.959 46.582h3.652 31.208 31.208z" fill="#4fc122" fill-rule="evenodd"/></g><g><path d="m402.343 459.409h-45.193c-4.268 0-7.726-3.461-7.726-7.731s3.459-7.731 7.726-7.731h45.193c4.268 0 7.726 3.461 7.726 7.731s-3.458 7.731-7.726 7.731z" fill="#fb8800"/></g><g><path d="m311.066 459.409h-45.193c-4.268 0-7.726-3.461-7.726-7.731s3.459-7.731 7.726-7.731h45.193c4.268 0 7.726 3.461 7.726 7.731.001 4.27-3.458 7.731-7.726 7.731z" fill="#fb8800"/></g><g><path d="m219.789 459.409h-45.223c-4.267 0-7.726-3.461-7.726-7.731s3.459-7.731 7.726-7.731h45.223c4.267 0 7.726 3.461 7.726 7.731.001 4.27-3.459 7.731-7.726 7.731z" fill="#fb8800"/></g><g><path d="m128.512 459.409h-45.223c-4.267 0-7.726-3.461-7.726-7.731s3.459-7.731 7.726-7.731h45.223c4.267 0 7.726 3.461 7.726 7.731s-3.459 7.731-7.726 7.731z" fill="#fb8800"/></g><g><path d="m360.03 416.097h-45.193c-4.268 0-7.726-3.461-7.726-7.731s3.459-7.731 7.726-7.731h45.193c4.268 0 7.726 3.461 7.726 7.731.001 4.269-3.458 7.731-7.726 7.731z" fill="#fb8800"/></g><g><path d="m268.754 416.097h-45.223c-4.267 0-7.726-3.461-7.726-7.731s3.459-7.731 7.726-7.731h45.223c4.268 0 7.726 3.461 7.726 7.731 0 4.269-3.459 7.731-7.726 7.731z" fill="#fb8800"/></g></g></svg>