<svg height="512" viewBox="0 0 512 512" width="512" xmlns="http://www.w3.org/2000/svg"><g id="Flat"><path d="m192 152c0 26.51-25.07007 48-56 48s-56-21.49-56-48a40.94324 40.94324 0 0 1 .71-7.62988c4.26-22.88012 27.3901-40.37012 55.29-40.37012 27.96 0 51.12988 17.56006 55.32007 40.52a41.1347 41.1347 0 0 1 .67993 7.48z" fill="#efa702"/><path d="m304 152c0 26.51-25.07007 48-56 48s-56-21.49-56-48a40.94324 40.94324 0 0 1 .71-7.62988c4.26-22.88012 27.3901-40.37012 55.29-40.37012 27.96 0 51.12988 17.56006 55.32007 40.52a41.1347 41.1347 0 0 1 .67993 7.48z" fill="#efa702"/><path d="m416 152c0 26.51-25.07007 48-56 48s-56-21.49-56-48a40.94324 40.94324 0 0 1 .71-7.62988c4.26-22.88012 27.3901-40.37012 55.29-40.37012 27.96 0 51.12988 17.56006 55.32007 40.52a41.1347 41.1347 0 0 1 .67993 7.48z" fill="#efa702"/><path d="m144 128h-16v-17.373a46.3218 46.3218 0 0 0 -13.65723-32.96972l11.31446-11.31446a62.21991 62.21991 0 0 1 18.34277 44.28418z" fill="#4ba477"/><path d="m120 120h32v16h-32z" fill="#e88604"/><path d="m256 128h-16v-17.373a46.3218 46.3218 0 0 0 -13.65723-32.96972l11.31446-11.31446a62.21991 62.21991 0 0 1 18.34277 44.28418z" fill="#4ba477"/><path d="m232 120h32v16h-32z" fill="#e88604"/><path d="m368 128h-16v-17.373a46.3218 46.3218 0 0 0 -13.65723-32.96972l11.31446-11.31446a62.21991 62.21991 0 0 1 18.34277 44.28418z" fill="#4ba477"/><path d="m344 120h32v16h-32z" fill="#e88604"/><path d="m416 152c0 26.51-25.07007 48-56 48s-56-21.49-56-48c0 26.51-25.07007 48-56 48s-56-21.49-56-48c0 26.51-25.07007 48-56 48s-56-21.49-56-48a40.94324 40.94324 0 0 1 .71-7.62988 70.04316 70.04316 0 0 1 7.29-.37012c24.07007 0 45.08008 11.68994 56 28.91992 9.58008-15.11987 26.93994-25.98 47.32007-28.3999.46-.06006.91992-.11011 1.38989-.1499a70.04316 70.04316 0 0 1 7.29004-.37012c24.07007 0 45.08008 11.68994 56 28.91992 9.58008-15.11987 26.93994-25.98 47.32007-28.3999.46-.06006.91992-.11011 1.38989-.1499a70.04316 70.04316 0 0 1 7.29004-.37012c24.07007 0 45.08008 11.68994 56 28.91992 9.58008-15.11987 26.93994-25.98 47.32007-28.3999a41.1347 41.1347 0 0 1 .67993 7.47998z" fill="#e88604"/><ellipse cx="88" cy="200" fill="#efa702" rx="56" ry="48"/><path d="m256 200c0 26.51-25.07007 48-56 48-23.23 0-43.15991-12.12988-51.64014-29.39014a41.89759 41.89759 0 0 1 0-37.21972c8.48023-17.26026 28.41014-29.39014 51.64014-29.39014 30.92993 0 56 21.49 56 48z" fill="#efa702"/><path d="m152 200a49.36491 49.36491 0 0 1 -3.64014 18.60986 41.89759 41.89759 0 0 1 0-37.21972 49.36491 49.36491 0 0 1 3.64014 18.60986z" fill="#e88604"/><path d="m368 200c0 26.51-25.07007 48-56 48-23.23 0-43.15991-12.12988-51.64014-29.39014a41.89759 41.89759 0 0 1 0-37.21972c8.48023-17.26026 28.41014-29.39014 51.64014-29.39014 30.92993 0 56 21.49 56 48z" fill="#efa702"/><path d="m264 200a49.36491 49.36491 0 0 1 -3.64014 18.60986 41.89759 41.89759 0 0 1 0-37.21972 49.36491 49.36491 0 0 1 3.64014 18.60986z" fill="#e88604"/><path d="m480 200c0 26.51-25.07007 48-56 48-23.23 0-43.15991-12.12988-51.64014-29.39014a41.89759 41.89759 0 0 1 0-37.21972c8.48023-17.26026 28.41014-29.39014 51.64014-29.39014 30.92993 0 56 21.49 56 48z" fill="#efa702"/><path d="m376 200a49.36491 49.36491 0 0 1 -3.64014 18.60986 41.89759 41.89759 0 0 1 0-37.21972 49.36491 49.36491 0 0 1 3.64014 18.60986z" fill="#e88604"/><path d="m344 328h144v64h-144z" fill="#ad7d4d"/><path d="m344 200h144v64h-144z" fill="#ad7d4d"/><path d="m344 264h144v64h-144z" fill="#c4965c"/><path d="m24 200h320v64h-320z" fill="#c4965c"/><path d="m24 328h320v64h-320z" fill="#c4965c"/><path d="m24 264h320v64h-320z" fill="#ad7d4d"/><g fill="#d3e1e9"><circle cx="376" cy="232" r="8"/><circle cx="456" cy="232" r="8"/><circle cx="376" cy="296" r="8"/><circle cx="456" cy="296" r="8"/><circle cx="376" cy="360" r="8"/><circle cx="312" cy="232" r="8"/><circle cx="312" cy="296" r="8"/><circle cx="312" cy="360" r="8"/><circle cx="56" cy="232" r="8"/><circle cx="56" cy="296" r="8"/><circle cx="56" cy="360" r="8"/><circle cx="456" cy="360" r="8"/></g><path d="m224 376c0 21.22-16.06006 39.22-38.33008 45.56006a64.62351 64.62351 0 0 1 -17.66992 2.43994c-30.92993 0-56-21.49-56-48s25.07007-48 56-48c16.09009 0 30.59009 5.81006 40.80005 15.12012 9.41995 8.58988 15.19995 20.14988 15.19995 32.87988z" fill="#efa702"/><path d="m176 352h-16v-9.373a46.3218 46.3218 0 0 0 -13.65723-32.96972l11.31446-11.31446a62.21991 62.21991 0 0 1 18.34277 44.28418z" fill="#4ba477"/><path d="m152 344h32v16h-32z" fill="#e88604"/><path d="m176 232 4.77689 47.7689a35.7926 35.7926 0 0 0 35.61497 32.2311h23.60814v-31.19571a35.79261 35.79261 0 0 0 -23.225-33.51366z" fill="#4ba477"/><path d="m240.41016 330.5293a66.05185 66.05185 0 0 0 -25.89746-33.90625l-2.9502-1.9668 8.875-13.3125 2.9502 1.9668a82.12309 82.12309 0 0 1 32.20214 42.16015z" fill="#349966"/><path d="m224 376c0 21.22-16.06006 39.22-38.33008 45.56006a50.6101 50.6101 0 0 1 -9.66992-29.56006c0-20.97 13.24-39.29 32.80005-48.87988 9.41995 8.58988 15.19995 20.14988 15.19995 32.87988z" fill="#e88604"/><ellipse cx="240" cy="392" fill="#efa702" rx="56" ry="48"/><path d="m248 368h-16v-7.999a79.04673 79.04673 0 0 1 38.18457-67.44141l5.69922-3.41895 8.23242 13.71876-5.69921 3.4199a62.96556 62.96556 0 0 0 -30.417 53.7217z" fill="#4ba477"/><path d="m224 360h32v16h-32z" fill="#e88604"/></g></svg>