<svg id="Capa_1" enable-background="new 0 0 346.634 346.634" height="512" viewBox="0 0 346.634 346.634" width="512" xmlns="http://www.w3.org/2000/svg"><g><path d="m288.31 92.721v47.244s-2.254.996-6.304 2.711c-10.451 4.426-32.873 13.62-59.574 22.895-44.272 15.351-100.335 30.914-133.176 25.166-23.989-4.197-42.247-17.066-55.54-31.061-13.685-14.355-22.111-29.885-26.113-38.377-.277-.604-.506-1.225-.669-1.846-.915-3.397-.18-7.071 2.058-9.88l5.814-7.3 1.682-2.107c2.988-3.772 7.986-5.161 12.411-3.625.539.18 1.062.392 1.584.67 20.054 10.566 74.892 36.009 136.687 35.209 25.639-.327 85.638-24.594 110.28-35.013 6.761-2.874 10.86-4.686 10.86-4.686z" fill="#f7be56"/><path d="m288.31 92.721c-14.224 26.472-34.572 37.756-40.124 39.781-10.697 3.887-21.017 7.137-30.963 9.782-109.611 29.215-172.81-13.048-195.706-33.51-2.858-2.58-5.095-4.801-6.712-6.5l1.682-2.107c2.988-3.772 7.986-5.161 12.411-3.625.539.18 1.062.392 1.584.67 20.054 10.566 74.892 36.009 136.687 35.209 25.639-.327 85.638-24.594 110.28-35.013 6.762-2.875 10.861-4.687 10.861-4.687z" fill="#fcd462"/><path d="m274.151 244.791s-30.979 1.29-70.711 1.715h-.016c-64.702.686-152.626-.898-167.78-13.946-5.618-4.85-10.599-10.909-14.926-17.392-1.241-1.829-2.417-3.691-3.544-5.585-1.241-2.09-2.433-4.197-3.56-6.304-6.174-11.579-10.403-22.88-12.673-29.624-.196-.555-.359-1.078-.523-1.568-.947-2.907-.261-6.091 1.813-8.345l5.814-6.353 1.649-1.796c2.482-2.695 6.418-3.495 9.749-1.976.392.18.8.359 1.192.539 4.442 2.009 8.802 3.838 13.081 5.52 86.422 34.033 145.097 7.349 183.507-17.392 15.204-9.782 27.223-19.27 36.548-24.561 10.076-5.732 17.768-12.934 23.647-20.299l.016-.016h.016c14.355-17.964 17.768-36.776 17.768-36.776l7.316 5.601 4.23 3.233s1.927 59.443 3.903 69.846v.016c.065.327.114.588.18.817 2.04 7.479-36.696 104.646-36.696 104.646z" fill="#f7be56"/><path d="m342.788 194.819c-8.835 48.567-69.993 100.253-146.109 120.65-76.1 20.38-163.077-31.273-171.242-41.463-5.553-6.94-15.824-21.442-21.818-29.999-1.045-1.486-1.78-3.152-2.188-4.866-.735-3.037-.457-6.287.882-9.227l5.732-12.542c1.797-3.936 5.21-6.695 9.129-7.79 1.388-.392 2.842-.572 4.311-.522 1.192.033 2.401.228 3.576.572 108.174 31.779 124.374 13.113 171.618 4.572 38.998-7.022 68.948-44.305 85.327-71.528 2.401-3.968 4.507-7.741 6.304-11.154 1.339-2.548 2.515-4.899 3.511-7.006 9.798-20.772 9.815-45.971 9.586-53.091v-.016c-.033-1.257-.082-1.943-.082-1.943h23.108s-11.546 29.901 0 55.05c11.562 25.133 27.19 21.736 18.355 70.303z" fill="#f7be56"/><path d="m310.666 139.312v.016c-8.459 38.605-32.155 78.877-89.295 100.907-6.091 2.352-12.069 4.426-17.931 6.271h-.016c-97.837 30.62-164.759-6.94-187.148-22.748-5.422-3.838-8.231-6.385-8.231-6.385 1.797-3.936 5.21-6.695 9.129-7.79 1.388-.392 2.842-.572 4.311-.522 1.192.033 2.401.228 3.576.572 108.174 31.779 124.374 13.113 171.618 4.572 38.998-7.022 68.948-44.305 85.327-71.528 2.401-3.968 4.507-7.741 6.304-11.154 1.339-2.548 2.515-4.899 3.511-7.006 9.798-20.772 9.815-45.971 9.586-53.091v-.016c-.033-1.257-.082-1.943-.082-1.943h11.301c2.531 18.436 3.756 43.765-1.96 69.845z" fill="#fcd462"/><path d="m302.534 66.233c-.196 1.045-.408 2.123-.653 3.233-.147.637-.294 1.29-.473 1.96-2.237 9.096-6.418 19.989-13.097 31.518-12.264 21.181-33.004 44.468-65.878 62.627h-.016c-16.951 9.358-37.119 17.343-61.027 22.977-84.397 19.874-131.298-11.284-147.155-25.1-4.164-3.625-6.189-6.059-6.189-6.059l1.649-1.796c2.482-2.695 6.418-3.495 9.749-1.976.392.18.8.359 1.192.539 4.442 2.009 8.802 3.838 13.081 5.52 86.422 34.033 145.097 7.349 183.507-17.392 15.204-9.782 27.223-19.27 36.548-24.561 10.076-5.732 17.784-12.95 23.663-20.315h.016c14.355-17.964 17.768-36.776 17.768-36.776z" fill="#fcd462"/><g fill="#4d5c7d"><path d="m291.965 44.164c1.947-2.857 3.894-5.714 5.84-8.571 2.747-4.031 6.064-8.43 10.9-9.068 4.433-.585 8.576 2.26 11.77 5.388 2.625 2.571 19.379 1.973 21.373 5.06 3.18 4.923 5.526 10.779 4.568 16.562-.364 2.195-1.219 4.34-2.673 6.024-1.496 1.734-3.533 2.893-5.527 4.019-2.379 1.343-4.758 2.686-7.137 4.029-4.476 2.527-9.014 5.079-13.984 6.393-5.444 1.439-11.557 1.233-16.328-1.759-4.483-2.812-8.117-9.109-5.652-14.247 2.905-6.054-6.924-8.291-3.15-13.83z"/><path d="m28.899 96.542c.229 4.671-3.886 8.949-7.381 12.232-.425.392-.817.767-1.208 1.127-3.446 3.201-8.296 5.307-11.529 8.541-.604.359-1.225.702-1.845 1.012-.915-3.397-.18-7.071 2.058-9.88l5.814-7.3 1.682-2.107c2.986-3.772 7.983-5.16 12.409-3.625z"/><path d="m20.636 154.156c-.784 3.479-3.674 6.679-6.402 9.292-.686.67-1.355 1.274-1.976 1.862-3.381 3.135-8.084 5.209-11.317 8.345-.196-.555-.359-1.078-.523-1.568-.947-2.907-.261-6.091 1.813-8.345l5.814-6.353 1.649-1.796c2.482-2.695 6.418-3.495 9.749-1.976.392.18.8.36 1.193.539z"/><path d="m20.717 215.167c-.996 2.792-2.613 5.536-3.952 7.79-.163.277-.327.539-.49.8-2.417 3.723-6.075 6.924-8.1 10.696-1.47 1.568-3.054 3.087-4.981 4.034-.555.277-1.159.506-1.764.653-.735-3.037-.457-6.287.882-9.227l5.732-12.542c1.797-3.936 5.21-6.695 9.129-7.79 1.388-.392 2.842-.572 4.311-.522.344 1.96-.048 4.051-.767 6.108z"/></g></g></svg>