<?xml version="1.0" encoding="iso-8859-1"?>
<!-- Generator: Adobe Illustrator 19.0.0, SVG Export Plug-In . SVG Version: 6.00 Build 0)  -->
<svg version="1.1" id="Capa_1" xmlns="http://www.w3.org/2000/svg" xmlns:xlink="http://www.w3.org/1999/xlink" x="0px" y="0px"
	 viewBox="0 0 511.999 511.999" style="enable-background:new 0 0 511.999 511.999;" xml:space="preserve">
<path style="fill:#BDEBFF;" d="M311.91,249.561H39.514c0,0-87.683,105.78,7.656,235.738c9.606,13.095,24.873,20.847,41.113,20.847
	h174.856c16.241,0,31.507-7.752,41.113-20.847C399.593,355.341,311.91,249.561,311.91,249.561z"/>
<path style="fill:#92D8FF;" d="M197.395,305.604c65.069-18.009,114.516-56.043,114.516-56.043l0,0l0,0H39.514
	c0,0-87.683,105.78,7.656,235.738c9.606,13.095,24.873,20.847,41.113,20.847h99.236c-28.444-31.305-43.611-64.313-51.298-93.934
	C124.222,365.964,151.346,318.349,197.395,305.604z"/>
<path style="fill:#D7F3FF;" d="M311.91,249.561H39.514C17.781,249.561,0,231.78,0,210.048l0,0c0-21.733,17.781-39.515,39.514-39.515
	H311.91c21.733,0,39.515,17.781,39.515,39.515l0,0C351.425,231.78,333.643,249.561,311.91,249.561z"/>
<path style="fill:#BDEBFF;" d="M80.288,210.048L80.288,210.048c0-21.733,17.781-39.515,39.514-39.515H39.515
	C17.781,170.533,0,188.314,0,210.048l0,0c0,21.733,17.781,39.515,39.515,39.515h80.288C98.069,249.561,80.288,231.78,80.288,210.048
	z"/>
<path style="fill:#FFDAAA;" d="M501.378,300.568c14.162,14.162,14.162,37.124,0,51.285c-14.162,14.162-37.124,14.162-51.285,0
	c-14.162-14.162-173.738-184.111-153.282-204.568C317.267,126.829,487.216,286.405,501.378,300.568z"/>
<circle style="fill:#FFDE55;" cx="277.933" cy="302.348" r="30.49"/>
<path style="fill:#FFCD00;" d="M47.171,485.3c9.606,13.095,24.873,20.847,41.113,20.847H263.14c16.241,0,31.507-7.752,41.113-20.847
	c38.739-52.805,47.261-101.619,43.725-140.967H3.446C-0.09,383.681,8.432,432.495,47.171,485.3z"/>
<path style="fill:#FFB000;" d="M3.446,344.333C-0.09,383.681,8.432,432.494,47.171,485.3c9.606,13.095,24.873,20.847,41.113,20.847
	h99.236c-28.444-31.305-43.611-64.313-51.298-93.934c-6.212-23.939-1.92-48.233,10.032-67.879H3.446V344.333z"/>
<path style="fill:#FFC477;" d="M501.378,351.853c4.116-4.116,7.027-8.977,8.75-14.147c-66.129-34.885-120.863-92.569-141.09-116.264
	c-14.533-17.025-14.41-33.596-11.263-45.189c-29.633-21.985-53.99-35.943-60.964-28.968
	c-20.456,20.456,139.12,190.405,153.282,204.567C464.254,366.015,487.216,366.015,501.378,351.853z"/>
<path style="fill:#C68D6D;" d="M345.917,166.175L315.7,196.393c-6.932,6.932-18.17,6.932-25.102,0l-39.311-39.311l55.32-55.32
	l39.311,39.311C352.849,148.005,352.849,159.243,345.917,166.175z"/>
<path style="fill:#935B45;" d="M315.701,196.393l10.063-10.063c-2.452-8.819-1.634-18.464,2.759-26.956
	c7.018-13.569,9.212-26.484,9.213-26.485l-31.127-31.128l-55.32,55.32l39.311,39.311
	C297.53,203.325,308.769,203.325,315.701,196.393z"/>
<path style="fill:#FFB864;" d="M191.646,159.098c16.814,16.814,36.342,28.438,55.832,34.475
	c14.471,4.482,30.239,0.375,40.951-10.337l44.335-44.335c10.712-10.712,14.819-26.48,10.337-40.951
	c-6.037-19.49-17.662-39.018-34.475-55.832c-16.814-16.814-36.342-28.438-55.832-34.475c-14.471-4.482-30.239-0.375-40.951,10.337
	l-44.335,44.335c-10.712,10.712-14.819,26.48-10.337,40.951C163.207,122.757,174.832,142.286,191.646,159.098z"/>
<path style="fill:#FFDE55;" d="M252.792,7.645c-14.471-4.482-30.239-0.375-40.951,10.337l-44.335,44.335
	c-8.034,8.033-12.353,18.912-12.119,29.954h-0.009v172.382c0,16.769,13.72,30.49,30.49,30.49l0,0c16.769,0,30.49-13.72,30.49-30.49
	V135.897c0-8.548,6.994-15.542,15.542-15.542l0,0c8.548,0,15.542,6.994,15.542,15.542v70.186c0,16.769,13.72,30.49,30.49,30.49l0,0
	c16.769,0,30.49-13.721,30.49-30.49V41.925C291.655,25.219,272.205,13.658,252.792,7.645z"/>
<path style="fill:#FFCD00;" d="M155.387,92.269h-0.009v172.382c0,16.769,13.72,30.49,30.49,30.49l0,0
	c5.409,0,10.498-1.434,14.915-3.932c-38.771-128.668,11.058-273.228,11.058-273.228l-44.335,44.334
	C159.473,70.35,155.154,81.228,155.387,92.269z"/>
<g>
	<path style="fill:#57565C;" d="M258.803,433.274c-4.268,0-7.726-3.459-7.726-7.726v-12.826c0-4.267,3.458-7.726,7.726-7.726
		c4.268,0,7.726,3.459,7.726,7.726v12.827C266.529,429.814,263.071,433.274,258.803,433.274z"/>
	<path style="fill:#57565C;" d="M92.622,433.274c-4.268,0-7.726-3.459-7.726-7.726v-12.826c0-4.267,3.458-7.726,7.726-7.726
		s7.726,3.459,7.726,7.726v12.827C100.348,429.814,96.889,433.274,92.622,433.274z"/>
	<path style="fill:#57565C;" d="M175.712,441.364c-10,0-20-3.236-28.344-9.708c-3.372-2.616-3.985-7.469-1.369-10.841
		c2.614-3.373,7.469-3.986,10.84-1.37c11.113,8.62,26.634,8.62,37.747,0c3.37-2.616,8.225-2.003,10.84,1.37
		c2.616,3.372,2.003,8.225-1.369,10.841C195.712,438.128,185.712,441.364,175.712,441.364z"/>
</g>
<g>
</g>
<g>
</g>
<g>
</g>
<g>
</g>
<g>
</g>
<g>
</g>
<g>
</g>
<g>
</g>
<g>
</g>
<g>
</g>
<g>
</g>
<g>
</g>
<g>
</g>
<g>
</g>
<g>
</g>
</svg>
