<svg id="Capa_1" enable-background="new 0 0 502 502" height="512" viewBox="0 0 502 502" width="512" xmlns="http://www.w3.org/2000/svg" xmlns:xlink="http://www.w3.org/1999/xlink"><linearGradient id="lg1"><stop offset="0" stop-color="#7ed99e"/><stop offset=".2532" stop-color="#81daa3"/><stop offset=".5725" stop-color="#88ddb3"/><stop offset=".9261" stop-color="#95e2cd"/><stop offset="1" stop-color="#98e3d3"/></linearGradient><linearGradient id="SVGID_1_" gradientUnits="userSpaceOnUse" x1="279.513" x2="429.544" xlink:href="#lg1" y1="142.241" y2="142.241"/><linearGradient id="SVGID_2_" gradientUnits="userSpaceOnUse" x1="262.332" x2="262.332" y1="157.616" y2="10.745"><stop offset="0" stop-color="#ac6c58"/><stop offset="1" stop-color="#da9b8c"/></linearGradient><linearGradient id="SVGID_3_" gradientUnits="userSpaceOnUse" x1="224.729" x2="224.729" y1="516.394" y2="-13.455"><stop offset="0" stop-color="#f4d952"/><stop offset="1" stop-color="#f9edaf"/></linearGradient><linearGradient id="SVGID_4_" gradientUnits="userSpaceOnUse" x1="211.434" x2="211.434" xlink:href="#lg1" y1="123.002" y2="-10.649"/><g><path d="m326.766 186.955c-28.844 0-52.228-20.019-52.228-44.714s23.383-44.714 52.228-44.714c28.457 0 63.22 13.613 86.712 44.474 8.889 11.677 1.63 28.635-12.929 30.485-21.81 2.771-46.367 14.469-73.783 14.469z" fill="url(#SVGID_1_)"/><path d="m234.113 238.884c-15.896 0-28.783-12.886-28.783-28.783 0-36.015 29.588-115.614 63.431-154.829 10.384-12.035 28.561-13.372 40.595-2.985 12.035 10.387 13.371 28.561 2.985 40.596-25.012 28.983-49.446 95.21-49.446 117.218 0 15.897-12.886 28.783-28.782 28.783z" fill="url(#SVGID_2_)"/><path d="m364.815 266.036c0 149.974-86.716 217.012-182.048 234.544-62.713 11.533-114.781-49.17-93.136-109.148 15.41-42.701 19.757-89.67 19.757-125.396 0-65.325 57.179-118.282 127.714-118.282 70.534 0 127.713 52.956 127.713 118.282z" fill="url(#SVGID_3_)"/><path d="m194.304 94.146c20.396 20.396 51.086 22.775 68.548 5.313s15.083-48.152-5.313-68.548c-20.122-20.122-54.329-35.077-92.762-29.866-14.543 1.971-21.401 19.096-12.415 30.698 13.463 17.382 22.556 43.017 41.942 62.403z" fill="url(#SVGID_4_)"/><path d="m232.061 75.178c-7.907-13.699-30.399-28.225-39.445-32.748-5.681-2.841-7.983-9.749-5.143-15.43 2.84-5.68 9.751-7.981 15.429-5.143 9.751 4.876 37.576 21.894 49.079 41.822 3.175 5.501 1.289 12.534-4.211 15.709-5.465 3.155-12.514 1.327-15.709-4.21z" fill="#24bd7f"/><path d="m318.207 138.794c.656-1.259 1.314-2.494 1.971-3.702 4.445-8.171.41-18.371-8.406-21.339-6.917-2.328-14.489.667-17.976 7.078-5.694 10.47-10.989 21.939-15.529 33.205 20.828 6.564 39.225 17.982 53.651 32.784 11.956-.616 23.353-3.262 34.205-6.158-12.558-16.791-28.813-31.121-47.916-41.868z" fill="#24bd7f"/><path d="m295.369 426.87-.006-.007c-5.544-6.029-14.908-6.508-21.011-1.046-20.003 17.902-44.931 31.355-73.545 39.707-7.915 2.31-12.556 10.487-10.354 18.433 2.224 8.027 10.575 12.747 18.574 10.425 31.179-9.05 60.574-24.007 85.253-46.127 6.25-5.601 6.77-15.208 1.089-21.385z" fill="#efc534"/><g fill="#fffde3"><path d="m176.151 204.641c-3.15 0-6.25-1.484-8.196-4.259-3.171-4.521-2.077-10.758 2.445-13.929 2.367-1.66 4.833-3.25 7.331-4.724 4.756-2.806 10.888-1.227 13.694 3.53 2.807 4.757 1.226 10.888-3.53 13.694-2.049 1.209-4.071 2.512-6.011 3.872-1.746 1.227-3.75 1.816-5.733 1.816z"/><path d="m137.742 268.509c-.306 0-.614-.015-.925-.043-5.5-.504-9.549-5.371-9.045-10.871 1.214-13.25 5.232-25.944 11.941-37.729 2.733-4.8 8.839-6.474 13.638-3.743 4.8 2.732 6.475 8.838 3.743 13.638-5.288 9.29-8.454 19.27-9.406 29.661-.475 5.188-4.835 9.087-9.946 9.087z"/></g><g><ellipse cx="146.324" cy="328.032" fill="#eaadcd" rx="14.936" ry="12.003"/><ellipse cx="322.095" cy="328.032" fill="#eaadcd" rx="14.936" ry="12.003"/><circle cx="171.931" cy="298.414" fill="#fff" r="29.618"/><ellipse cx="159.965" cy="298.414" fill="#3b3b44" rx="17.652" ry="17.652" transform="matrix(.791 -.612 .612 .791 -149.133 160.219)"/><circle cx="296.488" cy="298.414" fill="#fff" r="29.618"/><g fill="#3b3b44"><ellipse cx="284.523" cy="298.414" rx="17.652" ry="17.652" transform="matrix(.22 -.976 .976 .22 -69.196 510.28)"/><path d="m241.8 305.608h-15.181c-3.007 0-5.658 1.976-6.506 4.862-2.672 9.09-5.742 27.748 14.097 27.748 19.838 0 16.769-18.659 14.097-27.748-.849-2.885-3.5-4.862-6.507-4.862z"/></g></g></g></svg>