<svg height="512" viewBox="0 0 58 58" width="512" xmlns="http://www.w3.org/2000/svg"><g id="020---Nori" fill="none"><path id="Shape" d="m40 18.59v-18.59l-3.13 2.49c-1.0948991.86995078-2.6451009.86995078-3.74 0l-1.26-1c-1.0948991-.86995078-2.6451009-.86995078-3.74 0l-1.26 1c-1.0948991.86995078-2.6451009.86995078-3.74 0l-1.26-1c-1.0948991-.86995078-2.6451009-.86995078-3.74 0l-1.26 1c-1.0948991.86995078-2.6451009.86995078-3.74 0l-1.26-1c-1.0948991-.86995078-2.64510092-.86995078-3.74 0l-1.26 1c-1.09489908.86995078-2.64510092.86995078-3.74 0l-3.13-2.49v22.86l3.13 2.49c1.09489908.8699508 2.64510092.8699508 3.74 0l1.26-1c1.09489908-.8699508 2.6451009-.8699508 3.74 0l1.26 1c1.0948991.8699508 2.6451009.8699508 3.74 0l1.13-.9z" fill="#35495e"/><g fill="#2c3e50"><path id="Shape" d="m6 19h-1c-.55228475 0-1-.4477153-1-1s.44771525-1 1-1h1c.55228475 0 1 .4477153 1 1s-.44771525 1-1 1z"/><path id="Shape" d="m17 19h-5c-.5522847 0-1-.4477153-1-1s.4477153-1 1-1h5c.5522847 0 1 .4477153 1 1s-.4477153 1-1 1z"/><path id="Shape" d="m33 12h-6c-.5522847 0-1-.4477153-1-1s.4477153-1 1-1h6c.5522847 0 1 .4477153 1 1s-.4477153 1-1 1z"/><path id="Shape" d="m13 9h-1c-.5522847 0-1-.44771525-1-1s.4477153-1 1-1h1c.5522847 0 1 .44771525 1 1s-.4477153 1-1 1z"/><path id="Shape" d="m21 14h-1c-.5522847 0-1-.4477153-1-1s.4477153-1 1-1h1c.5522847 0 1 .4477153 1 1s-.4477153 1-1 1z"/><path id="Shape" d="m35 17h-1c-.5522847 0-1-.4477153-1-1s.4477153-1 1-1h1c.5522847 0 1 .4477153 1 1s-.4477153 1-1 1z"/><path id="Shape" d="m10 14h-4c-.55228475 0-1-.4477153-1-1s.44771525-1 1-1h4c.5522847 0 1 .4477153 1 1s-.4477153 1-1 1z"/></g><path id="Shape" d="m40 41.45 1.13.9c1.0948991.8699508 2.6451009.8699508 3.74 0l1.26-1c1.0948991-.8699508 2.6451009-.8699508 3.74 0l1.26 1c1.0948991.8699508 2.6451009.8699508 3.74 0l3.13-2.49v-22.86l-3.13 2.49c-1.0948991.8699508-2.6451009.8699508-3.74 0l-1.26-1c-1.0948991-.8699508-2.6451009-.8699508-3.74 0l-1.26 1c-1.0948991.8699508-2.6451009.8699508-3.74 0l-1.26-1c-1.0948991-.8699508-2.6451009-.8699508-3.74 0l-1.26 1c-1.0948991.8699508-2.6451009.8699508-3.74 0l-1.26-1c-1.0948991-.8699508-2.6451009-.8699508-3.74 0l-1.26 1c-1.0948991.8699508-2.6451009.8699508-3.74 0l-3.13-2.49v16.59z" fill="#41767f"/><path id="Shape" d="m47 36h-7c-.5522847 0-1-.4477153-1-1s.4477153-1 1-1h7c.5522847 0 1 .4477153 1 1s-.4477153 1-1 1z" fill="#35495e"/><path id="Shape" d="m51 29h-6c-.5522847 0-1-.4477153-1-1s.4477153-1 1-1h6c.5522847 0 1 .4477153 1 1s-.4477153 1-1 1z" fill="#35495e"/><path id="Shape" d="m31 26h-1c-.5522847 0-1-.4477153-1-1s.4477153-1 1-1h1c.5522847 0 1 .4477153 1 1s-.4477153 1-1 1z" fill="#35495e"/><path id="Shape" d="m38 29h-1c-.5522847 0-1-.4477153-1-1s.4477153-1 1-1h1c.5522847 0 1 .4477153 1 1s-.4477153 1-1 1z" fill="#35495e"/><path id="Shape" d="m53 34h-1c-.5522847 0-1-.4477153-1-1s.4477153-1 1-1h1c.5522847 0 1 .4477153 1 1s-.4477153 1-1 1z" fill="#35495e"/><path id="Shape" d="m28 31h-4c-.5522847 0-1-.4477153-1-1s.4477153-1 1-1h4c.5522847 0 1 .4477153 1 1s-.4477153 1-1 1z" fill="#35495e"/><path id="Shape" d="m0 32 3.126 2.486c1.09757198.8708628 2.65042802.8708628 3.748 0l1.252-1c1.09757198-.8708628 2.650428-.8708628 3.748 0l1.252 1c1.097572.8708628 2.650428.8708628 3.748 0l1.252-1c1.097572-.8708628 2.650428-.8708628 3.748 0l1.252 1c1.097572.8708628 2.650428.8708628 3.748 0l1.252-1c1.097572-.8708628 2.650428-.8708628 3.748 0l1.252 1c1.097572.8708628 2.650428.8708628 3.748 0l3.126-2.486v22.861l-3.126 2.486c-1.097572.8708628-2.650428.8708628-3.748 0l-1.252-1c-1.097572-.8708628-2.650428-.8708628-3.748 0l-1.252 1c-1.097572.8708628-2.650428.8708628-3.748 0l-1.252-1c-1.097572-.8708628-2.650428-.8708628-3.748 0l-1.252 1c-1.097572.8708628-2.650428.8708628-3.748 0l-1.252-1c-1.097572-.8708628-2.65042802-.8708628-3.748 0l-1.252 1c-1.09757198.8708628-2.65042802.8708628-3.748 0l-3.126-2.486z" fill="#14a085"/><path id="Shape" d="m6 51h-1c-.55228475 0-1-.4477153-1-1s.44771525-1 1-1h1c.55228475 0 1 .4477153 1 1s-.44771525 1-1 1z" fill="#33907c"/><path id="Shape" d="m29 51h-16c-.5522847 0-1-.4477153-1-1s.4477153-1 1-1h16c.5522847 0 1 .4477153 1 1s-.4477153 1-1 1z" fill="#33907c"/><path id="Shape" d="m33 44h-6c-.5522847 0-1-.4477153-1-1s.4477153-1 1-1h6c.5522847 0 1 .4477153 1 1s-.4477153 1-1 1z" fill="#33907c"/><path id="Shape" d="m13 41h-1c-.5522847 0-1-.4477153-1-1s.4477153-1 1-1h1c.5522847 0 1 .4477153 1 1s-.4477153 1-1 1z" fill="#33907c"/><path id="Shape" d="m21 46h-1c-.5522847 0-1-.4477153-1-1s.4477153-1 1-1h1c.5522847 0 1 .4477153 1 1s-.4477153 1-1 1z" fill="#33907c"/><path id="Shape" d="m35 49h-1c-.5522847 0-1-.4477153-1-1s.4477153-1 1-1h1c.5522847 0 1 .4477153 1 1s-.4477153 1-1 1z" fill="#33907c"/><path id="Shape" d="m10 46h-4c-.55228475 0-1-.4477153-1-1s.44771525-1 1-1h4c.5522847 0 1 .4477153 1 1s-.4477153 1-1 1z" fill="#33907c"/></g></svg>