<svg id="Capa_1" enable-background="new 0 0 512 512" height="512" viewBox="0 0 512 512" width="512" xmlns="http://www.w3.org/2000/svg"><g><path d="m507.196 264.122c3.137-13.176 4.804-27.579 4.804-43.29s-1.667-30.114-4.804-43.29c-13.523-9.502-21.255-25.782-18.742-44.306-33.546-51.371-99.51-73.02-175.408-73.02s-141.862 21.649-175.408 73.02c2.513 18.524-5.219 34.804-18.742 44.306-3.137 13.176-4.804 27.578-4.804 43.29 0 115.259 89.075 160.616 198.954 160.616 75.898 0 141.862-21.649 175.408-73.02-2.514-18.524 5.218-34.804 18.742-44.306z" fill="#b0da87"/><path d="m114.092 220.838c20.861-5.02 43.752.616 60.048 16.913l102.598 102.598c11.243 11.243 17.109 25.866 17.457 40.633-101.035-5.025-180.101-51.56-180.103-160.144z" fill="#89d47f"/><path d="m313.046 155.298c-56.954 0-116.176 28.279-194.145 22.224 3.981-16.709 10.343-31.43 18.739-44.288 63.312.831 116.217-23.063 175.406-23.063 59.147 0 112.092 23.896 175.407 23.064 8.4 12.863 14.763 27.592 18.744 44.31-77.572 6.065-137.266-22.247-194.151-22.247z" fill="#fbf1cf"/><path d="m313.046 286.367c56.799 0 116.591-28.299 194.15-22.244-3.98 16.716-10.343 31.444-18.742 44.306-63.311-.835-116.176 23.066-175.408 23.066-59.143 0-112.092-23.894-175.407-23.064-8.4-12.863-14.764-27.593-18.744-44.312 77.58-6.069 137.258 22.248 194.151 22.248z" fill="#fbf1cf"/><path d="m206.007 269.617 57.089 57.088c-40.549-6.928-80.375-18.867-125.456-18.275-8.4-12.863-14.764-27.593-18.744-44.312 31.679-2.478 60.372.779 87.111 5.499z" fill="#fae0bd"/><path d="m234.698 349.3c-28.708 26.162-51.23 44.876-105.646 44.876s-76.939-18.714-105.646-44.876l-16.544 16.543c-8.401 8.401-9.223 21.842-1.72 31.053 26.989 33.133 72.414 54.887 123.91 54.887s96.921-21.753 123.91-54.887c7.503-9.211 6.681-22.652-1.72-31.053z" fill="#b0da87"/><path d="m110.341 393.343c-41.339-3.89-61.761-21.102-86.935-44.044l-16.544 16.544c-8.401 8.401-9.223 21.842-1.72 31.053 26.989 33.133 72.414 54.887 123.91 54.887 20.668 0 40.353-3.511 58.266-9.848-38.229-6.083-62.468-25.073-76.977-48.592z" fill="#89d47f"/><path d="m109.459 263.246-86.053 86.054c4.712 12.871 13.333 24.844 25.397 34.951 21.108 17.682 49.607 27.42 80.249 27.42 30.641 0 59.141-9.738 80.249-27.42 12.064-10.107 20.685-22.079 25.397-34.95l-86.054-86.054c-10.82-10.821-28.364-10.821-39.185-.001z" fill="#e68a97"/><path d="m102.306 270.4-78.9 78.9c4.712 12.871 13.333 24.844 25.397 34.951 20.086 16.826 46.87 26.438 75.819 27.332-42.272-42.684-36.757-115.318-22.316-141.183z" fill="#e26e7e"/><g><g fill="#fff"><ellipse cx="226.959" cy="239.638" rx="31.765" ry="25.296"/><ellipse cx="399.133" cy="239.638" rx="31.765" ry="25.296"/></g><g fill="#4e5660"><path d="m245.471 222.476c-4.142 0-7.5-3.357-7.5-7.5v-12.361c0-4.143 3.358-7.5 7.5-7.5s7.5 3.357 7.5 7.5v12.361c0 4.142-3.358 7.5-7.5 7.5z"/><path d="m313.046 230.517c-8.996 0-17.55-3.896-23.47-10.689-2.721-3.123-2.396-7.86.727-10.582 3.123-2.721 7.859-2.395 10.582.727 3.07 3.523 7.503 5.544 12.162 5.544s9.091-2.021 12.162-5.544c2.722-3.123 7.459-3.447 10.582-.727 3.122 2.722 3.448 7.459.727 10.582-5.922 6.793-14.476 10.689-23.472 10.689z"/><path d="m397.334 222.131c-4.142 0-7.5-3.357-7.5-7.5 0-3.764-3.062-6.825-6.826-6.825s-6.826 3.061-6.826 6.825c0 4.143-3.358 7.5-7.5 7.5s-7.5-3.357-7.5-7.5c0-12.034 9.791-21.825 21.826-21.825s21.826 9.791 21.826 21.825c0 4.142-3.358 7.5-7.5 7.5z"/></g></g><g fill="#fbf1cf"><path d="m129.052 379.392c-4.142 0-7.5-3.357-7.5-7.5v-14.551c0-4.143 3.358-7.5 7.5-7.5s7.5 3.357 7.5 7.5v14.551c0 4.142-3.358 7.5-7.5 7.5z"/><path d="m92.106 353.376c-4.142 0-7.5-3.357-7.5-7.5v-12.476c0-4.143 3.358-7.5 7.5-7.5s7.5 3.357 7.5 7.5v12.476c0 4.143-3.358 7.5-7.5 7.5z"/><path d="m165.998 353.376c-4.142 0-7.5-3.357-7.5-7.5v-12.476c0-4.143 3.358-7.5 7.5-7.5s7.5 3.357 7.5 7.5v12.476c0 4.143-3.358 7.5-7.5 7.5z"/></g></g></svg>