<svg id="Layer_1" enable-background="new 0 0 128 128" height="512" viewBox="0 0 128 128" width="512" xmlns="http://www.w3.org/2000/svg"><g><path d="m77.7 29.5c1.7 3.3 5 5.5 8.7 5.7 6.6.6 8.5 6.8 8.1 11.4 0 .1-19 2.9-16.8-17.1z" fill="#a9d13c"/><path d="m110 35.1c-2.1 1.4-4.7 1.7-7 .6-4.1-1.7-7.2 1.3-8.5 4.2 0 0 10.4 7.8 15.5-4.8z" fill="#a9d13c"/><path d="m83 74.2c-3 9.1-7.4 19.6-22.7 23.2-13.2 3.1-31.3-.7-41.8-23.5-1.1-2.5-.1-5.5 2.3-6.8 6.4-3.6 12.2-8.1 17.3-13.4 2.5-2.6 11.5-9.3 22.2-8.5 4.3.3 16.7 1.9 28 13.5 2.1 2.1 1.9 5.7-.3 7.7-1.9 1.8-3.7 3.8-5 7.8z" fill="#febfad"/><g fill="#003239"><path d="m111 33.7c-.6-.5-1.5-.5-2.1 0-1.6 1-3.5 1.2-5.2.4-.9-.4-1.9 0-2.3.9s-.015 1.972 1 2.3c1.2.5 2.6.8 3.9.8-.8 1-2 1.8-3.2 2.2-2.5.7-5-.4-6.4-1.1.7-3.8 2.3-6.9 5.3-8 .9-.3 1.4-1.3 1.1-2.2s-1.3-1.4-2.2-1.1c-4 1.5-6.2 5-7.2 9.2-1.7-2.1-4.3-3.4-7-3.6-3.1-.2-5.8-1.9-7.2-4.6-.4-.9-1.4-1.3-2.3-.9-.6.2-1 .8-1.1 1.4-1.7 14.1 6.7 17.8 11.9 18.8 1 .2 1.9-.5 2-1.4.2-.9-.4-1.8-1.4-2-5.7-1.1-8.8-4.6-9.3-10.4 2 1.6 4.4 2.5 6.9 2.7 5.3.5 6.4 5.2 6.6 7.9.1 2.6.5 6.3 1 8.2.6 2.8 0 4.8-1.6 5.3-.6.2-1.3.2-1.9-.1-.2-.3-.4-.5-.6-.8-6.1-6.1-17.9-14.1-30.7-14.1-8.1 0-15.6 2.6-22.1 9.1-.4.4-.8.8-1.2 1.2-.7.7-.7 1.8 0 2.5s1.8.7 2.5 0l1.3-1.3c2.4-2.5 5.2-4.4 8.3-5.8 1.2 2.8 1.3 5.9.2 8.7-.4.9 0 1.9.9 2.3s1.9 0 2.3-.9c0 0 0 0 0-.1 1.4-3.6 1.4-7.7-.2-11.3 2.6-.7 5.3-1.1 7.9-1 5 .1 9.9 1.3 14.5 3.4 2.8 4.4 3.1 10 .9 14.7-.4.9-.1 2 .8 2.3.9.4 1.9.1 2.4-.8 2.2-4.2 2.4-9.1 1-13.6 3.2 1.9 9.6 6 9.6 9.7-.1 1.1-.6 2-1.4 2.7-2.2 1.8-3.9 4.6-5.1 8.4-.9 3-2.1 5.8-3.5 8.6-.5 1 .1 2.1.7 2.4 1.2.5 2.1-.2 2.4-.7 1.5-3 2.7-6 3.7-9.2 1-3.1 2.4-5.4 4-6.7s3-3.9 2.7-6c.6 0 1.2-.1 1.8-.3 2.7-.9 5.1-3.9 3.9-9.4-.5-2.1-1.1-7-.9-9.3 1.6.7 3.4 1.1 5.1 1.2.9 0 1.7-.1 2.6-.3 3.158-.978 5.713-3.236 7.7-7.9.393-.923-.1-1.9-.8-2.4z"/><path d="m68.7 92.2c-2.3 1.3-4.7 2.4-7.3 3 1.6-3.5 3.2-9.2.4-15.1-.4-.9-1.5-1.2-2.3-.8-.9.4-1.2 1.5-.8 2.3 3 6.4-.5 12.7-1.7 14.5-1.5.2-3.1.4-4.7.5-6.7.3-13.3-1.9-18.6-6.1 3.9-4.5 5.1-10.7 3-16.3-.3-.9-1.3-1.4-2.2-1.1s-1.4 1.3-1.1 2.2c1.7 4.4.8 9.4-2.3 12.9-4.6-4.3-8.3-9.5-10.9-15.2-.7-1.7 0-3.7 1.6-4.6 1.7-.9 3.4-2 5.1-3.1.8-.6 1-1.7.4-2.4-.5-.7-1.6-.9-2.3-.5-1.6 1.1-3.2 2.1-4.8 3-3.2 1.8-4.6 5.7-3.1 9.1 5.4 12 17.5 25.7 33.8 25.7 9.1 0 16.1-2.8 19.8-5 .8-.5 1.1-1.6.6-2.4-.7-.8-1.7-1.1-2.6-.6z"/><path d="m32.79 61.018.387-.387c.708-.708.708-1.855 0-2.563s-1.855-.708-2.563 0l-.387.387c-.708.708-.708 1.855 0 2.563.707.708 1.855.708 2.563 0z"/><path d="m74.203 87.509-.464.464c-.708.708-.708 1.855 0 2.563s1.855.708 2.563 0l.464-.464c.708-.708.708-1.855 0-2.563s-1.856-.708-2.563 0z"/></g></g></svg>