<svg id="Layer_1" enable-background="new 0 0 512 512" height="512" viewBox="0 0 512 512" width="512" xmlns="http://www.w3.org/2000/svg"><g><circle cx="256" cy="256" fill="#afe6ff" r="256"/><g><path d="m345.51 156.701h-171.906v-82.54c0-7.485 6.068-13.553 13.553-13.553h144.799c7.485 0 13.553 6.068 13.553 13.553v82.54z" fill="#fff"/><path d="m207.563 156.701h-33.959v-82.54c0-7.485 6.068-13.553 13.553-13.553h20.405v96.093z" fill="#eefbff"/><path d="m338.861 495.234h-158.608c-25.752 0-46.627-20.876-46.627-46.627v-275.928c0-25.752 20.876-46.627 46.627-46.627h158.607c25.752 0 46.627 20.876 46.627 46.627v275.927c.001 25.752-20.875 46.628-46.626 46.628z" fill="#fff"/><path d="m177.492 244.444c9.563-3.621 18.711-5.356 19.973-5.435 16.611.043 21.611-2.27 70.561 13.945 35.408 11.729 64.11 19.492 100.154 18.429v153.01c0 22.213-18.007 40.219-40.219 40.219h-136.808c-22.212 0-40.219-18.007-40.219-40.219v-166.432c11.955-6.768 14.95-9.117 26.558-13.517z" fill="#f5cc02"/><path d="m150.432 448.606v-275.927c0-25.752 20.876-46.627 46.627-46.627h-16.806c-25.752 0-46.627 20.876-46.627 46.627v275.927c0 25.752 20.876 46.628 46.627 46.628h16.806c-25.751 0-46.627-20.876-46.627-46.628z" fill="#eefbff"/><g><g><path d="m310.067 10.538-62.343 272.864 23.384 5.343 62.382-273.031z" fill="#fff"/></g><g><path d="m310.067 10.538-62.343 272.864 8.241 1.883 62.357-272.923z" fill="#afe6ff"/></g><g fill="#ffa50a"><path d="m273.682 277.481-25.958 5.921 3.895-17.049 25.958-5.92z"/><path d="m281.597 242.838-25.958 5.92 3.895-17.048 25.958-5.921z"/><path d="m289.512 208.194-25.958 5.921 3.895-17.048 25.958-5.921z"/><path d="m297.429 173.544-25.958 5.921 3.895-17.048 25.958-5.921z"/><path d="m305.344 138.901-25.958 5.921 3.895-17.048 25.958-5.921z"/><path d="m313.259 104.258-25.957 5.921 3.895-17.049 25.957-5.921z"/><path d="m321.151 69.719-25.958 5.921 3.895-17.049 25.958-5.92z"/><path d="m329.066 35.076-25.958 5.92 3.895-17.048 25.958-5.921z"/></g><g fill="#fa870a"><path d="m260.767 264.267-9.148 2.086-3.895 17.049 9.148-2.087z"/><path d="m268.682 229.623-9.148 2.087-3.895 17.048 9.148-2.086z"/><path d="m276.597 194.98-9.148 2.087-3.895 17.048 9.148-2.087z"/><path d="m284.514 160.33-9.148 2.087-3.895 17.048 9.148-2.086z"/><path d="m292.429 125.687-9.148 2.087-3.895 17.048 9.148-2.087z"/><path d="m300.345 91.044-9.148 2.086-3.895 17.049 9.147-2.087z"/><path d="m308.236 56.505-9.148 2.086-3.895 17.049 9.148-2.087z"/><path d="m316.151 21.861-9.148 2.087-3.895 17.048 9.148-2.086z"/></g></g><path d="m341.622 258.098c-9.563-3.621-18.711-5.356-19.973-5.435-16.611.043-21.611-2.27-70.561 13.945-35.408 11.729-64.11 19.492-100.154 18.429v153.01c0 22.213 18.007 40.219 40.219 40.219h136.808c22.212 0 40.219-18.007 40.219-40.219v-166.431c-11.955-6.769-14.949-9.118-26.558-13.518z" fill="#ffe65a"/><g fill="#f5cc02"><circle cx="314.194" cy="317.331" r="15.325"/><circle cx="264.989" cy="287.708" r="5.432"/><circle cx="301.034" cy="427.437" r="13.159"/><circle cx="259.992" cy="375.848" r="10.429"/><circle cx="214.142" cy="434.017" r="6.58"/><circle cx="193.819" cy="342.21" r="9.554"/></g><path d="m195.459 406.875c-16.633 0-30.117-13.484-30.117-30.117v-188.964c0-16.633 13.484-30.117 30.117-30.117 16.633 0 30.117 13.484 30.117 30.117v188.964c0 16.633-13.484 30.117-30.117 30.117z" fill="#fff" opacity=".3"/><path d="m173.604 83.039h171.906" fill="none" stroke="#eefbff" stroke-linecap="round" stroke-miterlimit="10" stroke-width="13.655"/><path d="m173.604 107.197h171.906" fill="none" stroke="#eefbff" stroke-linecap="round" stroke-miterlimit="10" stroke-width="13.655"/><g><g><g><path d="m78.512 332.156c24.356 24.356 20.04 68.161 20.04 68.161s-43.805 4.316-68.161-20.04-20.04-68.161-20.04-68.161 43.805-4.316 68.161 20.04z" fill="#82bd1c"/><path d="m10.351 312.116 88.201 88.201s4.316-43.805-20.04-68.161-68.161-20.04-68.161-20.04z" fill="#97d729"/></g><g><path d="m132.92 333.943c0 26.585-26.262 48.136-26.262 48.136s-26.262-21.551-26.262-48.136 26.262-48.136 26.262-48.136 26.262 21.551 26.262 48.136z" fill="#82bd1c"/><path d="m106.658 285.807v96.272s26.262-21.551 26.262-48.136-26.262-48.136-26.262-48.136z" fill="#97d729"/></g></g><g><path d="m225.824 439.337c0 5.902-7.779 10.686-13.68 10.686-5.902 0-10.686-4.784-10.686-10.686s4.784-10.686 10.686-10.686c5.902.001 13.68 4.785 13.68 10.686z" fill="#f5b402"/><path d="m216.817 439.337c0 46.7-56.516 72.663-96.647 72.663s-72.663-32.532-72.663-72.663 32.532-72.663 72.663-72.663 96.647 26.28 96.647 72.663z" fill="#f5cc02"/><path d="m120.17 366.675c-1.92 0-3.816.097-5.698.244 39.415 2.721 89.867 28.593 89.867 72.419 0 44.118-50.435 69.723-89.848 72.421 1.876.145 3.766.242 5.679.242 40.13 0 96.647-25.962 96.647-72.663 0-46.385-56.517-72.663-96.647-72.663z" fill="#f5b402"/><circle cx="119.684" cy="439.337" fill="#fffad7" r="64.114"/><g fill="#ffe65a"><path d="m101.002 446.228h-33.235c-1.708 0-3.021 1.546-2.712 3.226 1.654 8.99 5.469 17.22 10.891 24.134 1.013 1.291 2.938 1.39 4.099.229l22.899-22.899c1.732-1.73.506-4.69-1.942-4.69z"/><path d="m111.551 384.376c-9.761 1.432-18.693 5.401-26.112 11.218-1.294 1.014-1.397 2.942-.234 4.105l24.797 24.798c1.731 1.731 4.691.505 4.691-1.943v-35.449c0-1.674-1.486-2.972-3.142-2.729z"/><path d="m102.945 431.555-24.519-24.519c-1.199-1.199-3.204-1.048-4.181.339-5.262 7.465-8.735 16.279-9.785 25.826-.179 1.625 1.106 3.046 2.74 3.046h33.802c2.448-.001 3.674-2.961 1.943-4.692z"/><path d="m124.675 387.104v35.45c0 2.448 2.96 3.674 4.691 1.943l24.798-24.798c1.163-1.163 1.06-3.09-.234-4.105-7.419-5.817-16.351-9.786-26.112-11.218-1.656-.243-3.143 1.055-3.143 2.728z"/><path d="m138.367 436.246h33.802c1.634 0 2.919-1.421 2.74-3.046-1.05-9.547-4.523-18.361-9.785-25.826-.977-1.386-2.982-1.538-4.181-.339l-24.519 24.519c-1.731 1.732-.505 4.692 1.943 4.692z"/><path d="m110.002 457.977-22.617 22.618c-1.202 1.202-1.045 3.209.345 4.188 6.943 4.891 15.053 8.231 23.834 9.517 1.651.242 3.13-1.059 3.13-2.728v-31.652c-.001-2.448-2.961-3.674-4.692-1.943z"/><path d="m136.424 450.919 22.899 22.899c1.161 1.161 3.086 1.062 4.099-.229 5.422-6.914 9.237-15.144 10.891-24.134.309-1.68-1.004-3.226-2.712-3.226h-33.234c-2.448-.001-3.674 2.959-1.943 4.69z"/><path d="m124.675 459.92v31.653c0 1.669 1.479 2.969 3.13 2.728 8.781-1.286 16.891-4.626 23.834-9.517 1.39-.979 1.547-2.986.345-4.188l-22.618-22.618c-1.731-1.732-4.691-.506-4.691 1.942z"/></g></g></g></g></g></svg>