<?xml version="1.0" encoding="iso-8859-1"?>
<!-- Generator: Adobe Illustrator 19.0.0, SVG Export Plug-In . SVG Version: 6.00 Build 0)  -->
<svg version="1.1" id="Capa_1" xmlns="http://www.w3.org/2000/svg" xmlns:xlink="http://www.w3.org/1999/xlink" x="0px" y="0px"
	 viewBox="0 0 512 512" style="enable-background:new 0 0 512 512;" xml:space="preserve">
<circle style="fill:#EBC9A0;" cx="256" cy="256" r="256"/>
<path style="fill:#D7AF8C;" d="M350.921,328.443l-35.571,5.095l39.277-73.287l-48.269-112.883c-1.746-4.084-7.441-4.334-9.538-0.42
	l-98.43,183.659c-2.725,5.086-0.812,11.418,4.274,14.143l7.254,3.887l-65.263,9.348c-5.711,0.818-9.678,6.111-8.86,11.823
	l11.85,82.733c0.818,5.712,6.111,9.679,11.823,8.86l134.442-19.255l62.327-105.772C358.49,332.548,355.318,327.813,350.921,328.443z
	"/>
<path style="fill:#FFDC8C;" d="M179.483,302.345c-1.776,0-3.569-0.534-5.129-1.647l-5.147-3.681
	c-3.966-2.836-4.879-8.353-2.043-12.319c2.836-3.957,8.336-4.879,12.319-2.043l5.147,3.681c3.966,2.836,4.879,8.353,2.043,12.319
	C184.948,301.06,182.233,302.345,179.483,302.345z"/>
<g>
	<path style="fill:#F7E5CA;" d="M197.888,281.009c-4.879,0-8.828-3.948-8.828-8.828v-2.94c0-4.879,3.948-8.828,8.828-8.828
		c4.879,0,8.828,3.948,8.828,8.828v2.94C206.716,277.06,202.767,281.009,197.888,281.009z"/>
	<path style="fill:#F7E5CA;" d="M406.81,252.319c-2.759,0-5.474-1.284-7.19-3.698c-2.836-3.966-1.914-9.483,2.052-12.31
		l10.302-7.353c3.966-2.836,9.491-1.922,12.31,2.052c2.836,3.966,1.914,9.483-2.052,12.31l-10.302,7.353
		C410.379,251.784,408.586,252.319,406.81,252.319z"/>
</g>
<path style="fill:#FFDC8C;" d="M415.638,278.802c-0.362,0-0.733-0.026-1.103-0.069l-5.88-0.733
	c-4.836-0.603-8.267-5.009-7.664-9.853c0.595-4.836,5.017-8.362,9.853-7.664l5.879,0.733c4.836,0.603,8.267,5.009,7.664,9.853
	C423.836,275.534,420.026,278.802,415.638,278.802z"/>
<g>
	<path style="fill:#ADDF6E;" d="M312.352,394.255c-1.155-1.28-1.944-2.902-2.191-4.734c-0.647-4.837,2.756-9.276,7.581-9.924
		l86.908-11.602c4.837-0.635,9.269,2.774,9.924,7.581c0.647,4.837-2.756,9.276-7.581,9.924l-86.908,11.602
		C317.086,397.496,314.234,396.342,312.352,394.255z"/>
	<path style="fill:#ADDF6E;" d="M261.445,400.479c-0.743-1.556-1.039-3.335-0.755-5.161c0.754-4.822,5.278-8.11,10.088-7.361
		l86.622,13.574c4.818,0.765,8.099,5.293,7.361,10.088c-0.754,4.822-5.278,8.11-10.088,7.361l-86.622-13.574
		C265.063,404.933,262.657,403.015,261.445,400.479z"/>
	<path style="fill:#ADDF6E;" d="M318.829,362.093c-1.155-1.28-1.944-2.902-2.191-4.734c-0.647-4.837,2.756-9.276,7.581-9.924
		l86.908-11.602c4.837-0.635,9.269,2.774,9.924,7.581c0.647,4.837-2.756,9.276-7.581,9.924l-86.908,11.602
		C323.563,365.334,320.711,364.18,318.829,362.093z"/>
</g>
<path style="fill:#FFA55F;" d="M336.438,346.747c-0.756-1.028-1.305-2.24-1.557-3.585c-0.904-4.793,2.241-9.407,7.034-10.311
	l77.321-14.607c4.781-0.906,9.406,2.21,10.311,7.034c0.904,4.793-2.241,9.407-7.034,10.311l-77.321,14.607
	C341.745,350.848,338.389,349.4,336.438,346.747z"/>
<path style="fill:#CDE16E;" d="M314.508,377.37c-0.843-1.146-1.418-2.51-1.632-4.022c-0.664-4.831,2.715-9.286,7.546-9.949
	l114.036-15.674c4.829-0.652,9.263,2.7,9.949,7.546c0.664,4.831-2.715,9.286-7.546,9.949l-114.036,15.674
	C319.508,381.344,316.362,379.89,314.508,377.37z"/>
<path style="fill:#FFDC8C;" d="M303.987,401.547c-1.022-1.389-1.646-3.081-1.71-4.928c-0.163-4.878,3.664-8.956,8.53-9.121
	l87.631-2.906c4.876-0.151,8.947,3.681,9.121,8.53c0.163,4.878-3.664,8.956-8.53,9.121l-87.631,2.906
	C308.376,405.243,305.652,403.811,303.987,401.547z"/>
<g>
	<path style="fill:#CDE16E;" d="M296.623,418.844c-1.369-1.861-2.009-4.258-1.591-6.717c0.819-4.808,5.38-8.035,10.188-7.216
		l46.251,7.896c4.806,0.831,8.035,5.38,7.216,10.188c-0.819,4.808-5.38,8.035-10.188,7.216l-46.251-7.896
		C299.898,421.914,297.931,420.621,296.623,418.844z"/>
	<path style="fill:#CDE16E;" d="M335.959,350.674c-0.082-0.111-0.158-0.215-0.228-0.325c-2.713-4.051-1.631-9.534,2.42-12.247
		l54.167-36.229c4.058-2.718,9.876-1.486,12.247,2.42c2.713,4.051,1.631,9.534-2.42,12.247l-54.167,36.229
		C344.036,355.413,338.738,354.452,335.959,350.674z"/>
</g>
<path style="fill:#F7F0E6;" d="M162.356,437.829l-11.849-82.734c-0.818-5.712,3.149-11.005,8.861-11.823l206.267-29.542
	c4.396-0.63,7.569,4.106,5.314,7.932l-62.327,105.772L174.18,446.689C168.467,447.508,163.174,443.541,162.356,437.829z"/>
<g>
	<path style="fill:#F7E5CA;" d="M158.05,387.661l203.304-49.718l9.594-16.281c2.255-3.826-0.918-8.562-5.314-7.932l-206.266,29.542
		c-5.712,0.818-9.679,6.112-8.861,11.823l4.846,33.832C156.204,388.431,157.043,387.907,158.05,387.661z"/>
	<polygon style="fill:#F7E5CA;" points="190.064,338.876 277.271,431.924 298.608,428.868 211.401,335.82 	"/>
</g>
<polygon style="fill:#F1D7B5;" points="240.98,367.38 211.401,335.82 197.295,337.84 190.064,338.876 221.292,372.195 "/>
<g>
	<path style="fill:#ADDF6E;" d="M344.824,222.872c-1.716,0.171-3.49-0.154-5.111-1.04c-4.28-2.345-5.839-7.716-3.502-11.987
		l42.153-76.881c2.354-4.272,7.727-5.823,11.987-3.502c4.28,2.345,5.839,7.716,3.502,11.987L351.7,218.33
		C350.24,220.979,347.62,222.593,344.824,222.872z"/>
	<path style="fill:#ADDF6E;" d="M319.672,267.567c-1.694-0.323-3.302-1.139-4.605-2.45c-3.437-3.464-3.405-9.058,0.049-12.488
		l62.263-61.732c3.471-3.427,9.063-3.387,12.488,0.049c3.437,3.464,3.405,9.058-0.049,12.488l-62.263,61.732
		C325.403,267.291,322.433,268.094,319.672,267.567z"/>
	<path style="fill:#ADDF6E;" d="M322.755,198.596c-1.716,0.171-3.49-0.154-5.111-1.04c-4.28-2.345-5.839-7.716-3.502-11.987
		l42.153-76.881c2.354-4.272,7.727-5.823,11.987-3.502c4.28,2.345,5.839,7.716,3.502,11.987l-42.153,76.881
		C328.171,196.703,325.551,198.317,322.755,198.596z"/>
</g>
<path style="fill:#FFA55F;" d="M320.828,175.319c-1.276,0-2.578-0.276-3.81-0.871c-4.397-2.112-6.25-7.379-4.138-11.776
	l34.052-70.94c2.103-4.388,7.353-6.267,11.776-4.138c4.397,2.112,6.25,7.379,4.138,11.776l-34.052,70.94
	C327.276,173.474,324.121,175.319,320.828,175.319z"/>
<path style="fill:#CDE16E;" d="M332.5,211.129c-1.422,0-2.862-0.345-4.207-1.069c-4.284-2.328-5.871-7.69-3.543-11.974
	L379.698,96.94c2.336-4.276,7.664-5.862,11.974-3.543c4.284,2.328,5.871,7.69,3.543,11.974l-54.948,101.147
	C338.664,209.457,335.629,211.129,332.5,211.129z"/>
<path style="fill:#FFDC8C;" d="M345.741,233.931c-1.724,0-3.457-0.5-4.983-1.543c-4.026-2.759-5.043-8.259-2.293-12.276
	l49.586-72.31c2.767-4.017,8.267-5.026,12.276-2.293c4.026,2.759,5.043,8.259,2.293,12.276l-49.586,72.31
	C351.319,232.586,348.552,233.931,345.741,233.931z"/>
<g>
	<path style="fill:#CDE16E;" d="M355.31,250.112c-2.31,0-4.621-0.905-6.353-2.698c-3.388-3.509-3.284-9.095,0.224-12.483
		l33.767-32.578c3.517-3.379,9.095-3.284,12.483,0.224s3.284,9.095-0.224,12.483l-33.767,32.578
		C359.724,249.293,357.517,250.112,355.31,250.112z"/>
	<path style="fill:#CDE16E;" d="M323.707,178.032c-0.138,0-0.267,0-0.397-0.009c-4.871-0.216-8.647-4.336-8.431-9.207l2.914-65.101
		c0.216-4.879,4.655-8.836,9.207-8.431c4.871,0.216,8.647,4.336,8.431,9.207l-2.914,65.101
		C332.31,174.333,328.397,178.032,323.707,178.032z"/>
</g>
<path style="fill:#F7F0E6;" d="M291.042,369.518l-73.665-39.48c-5.086-2.726-6.999-9.058-4.273-14.143l98.429-183.658
	c2.098-3.914,7.792-3.664,9.538,0.42L369.34,245.54l-64.155,119.706C302.459,370.33,296.127,372.243,291.042,369.518z"/>
<g>
	<path style="fill:#F7E5CA;" d="M248.079,343.259L328.5,150.031l-7.43-17.376c-1.746-4.084-7.44-4.334-9.538-0.42l-98.429,183.658
		c-2.726,5.086-0.812,11.418,4.273,14.144l30.124,16.144C247.605,345.202,247.68,344.216,248.079,343.259z"/>
	<polygon style="fill:#F7E5CA;" points="227.752,288.562 354.379,273.452 364.561,254.454 237.933,269.564 	"/>
</g>
<polygon style="fill:#F1D7B5;" points="280.884,264.439 237.933,269.564 231.202,282.123 227.752,288.562 273.095,283.151 "/>
<circle style="fill:#D7AF8C;" cx="145.66" cy="172.14" r="70.62"/>
<circle style="fill:#FFFFFF;" cx="158.9" cy="158.9" r="70.62"/>
<circle style="fill:#FF9B5F;" cx="158.9" cy="158.9" r="52.966"/>
<path style="fill:#FF8061;" d="M158.897,105.931c-20.309,0-37.927,11.442-46.814,28.22c7.388-3.914,15.802-6.151,24.745-6.151
	c29.252,0,52.966,23.713,52.966,52.966c0,8.943-2.238,17.357-6.151,24.745c16.778-8.887,28.22-26.505,28.22-46.814
	C211.862,129.644,188.149,105.931,158.897,105.931z"/>
<g>
</g>
<g>
</g>
<g>
</g>
<g>
</g>
<g>
</g>
<g>
</g>
<g>
</g>
<g>
</g>
<g>
</g>
<g>
</g>
<g>
</g>
<g>
</g>
<g>
</g>
<g>
</g>
<g>
</g>
</svg>
