<svg id="Layer_1" enable-background="new 0 0 512 512" height="512" viewBox="0 0 512 512" width="512" xmlns="http://www.w3.org/2000/svg"><g><circle cx="256" cy="256" fill="#55c7a6" r="256"/><g><path d="m301.864 303.565 79.301 197.506c.038-.015.075-.028.113-.044 54.696-21.961 95.829-63.253 118.744-112.843z" fill="#dc6a2f"/><path d="m169.165 39.868c-113.757 45.675-168.949 174.92-123.274 288.677s174.92 168.949 288.677 123.275l.466-.715c-.037.015-.075.029-.113.044l-79.301-197.506 198.063 84.579c24.425-53.385 27.759-116.298 4.158-175.079-45.673-113.758-174.918-168.95-288.676-123.275z" fill="#dc6a2f"/><path d="m255.621 253.642 167.3 71.443c21.072-45.51 24.059-99.272 3.897-149.486-38.795-96.623-148.573-143.502-245.196-104.707s-143.502 148.574-104.707 245.197 148.573 143.502 245.196 104.707c.179-.072.355-.15.534-.222z" fill="#ef8c3d"/><path d="m255.621 253.642 155.175 66.265.122-.383c19.593-42.316 22.37-92.306 3.624-138.996-36.074-89.842-138.148-133.431-227.991-97.358s-133.431 138.147-97.359 227.989c36.073 89.843 138.147 133.432 227.99 97.359.167-.067.33-.139.496-.207z" fill="#ffebb4"/><path d="m301.864 303.565 66.844 166.482c.037-.015.075-.028.113-.043 46.129-18.521 80.904-53.228 100.447-94.951z" fill="#ef8c3d"/><path d="m301.864 303.565 62.235 155.003c.035-.014.07-.027.105-.041 42.948-17.244 75.326-49.558 93.522-88.404z" fill="#ffebb4"/><g><circle cx="361.368" cy="214.896" fill="#e33442" r="39.106"/><circle cx="361.368" cy="214.896" fill="#fd4755" r="28.619"/></g><g><circle cx="142.893" cy="266.836" fill="#e33442" r="39.106"/><circle cx="142.893" cy="266.836" fill="#fd4755" r="28.619"/></g><g><path d="m279.27 312.652c-.168.065-.337.12-.504.188-20.043 8.047-29.767 30.818-21.719 50.861s30.818 29.767 50.861 21.719c.167-.067.328-.144.494-.213z" fill="#e33442"/><path d="m283.177 322.383c-.168.064-.337.12-.504.188-14.668 5.889-21.784 22.554-15.895 37.222s22.554 21.784 37.222 15.895c.167-.067.328-.143.494-.213z" fill="#fd4755"/></g><g><path d="m381.499 396.951c-8.047-20.042-30.818-29.766-50.861-21.719l29.142 72.58c20.042-8.048 29.766-30.819 21.719-50.861z" fill="#e33442"/><path d="m371.768 400.858c-5.889-14.668-22.554-21.784-37.222-15.895l21.327 53.117c14.668-5.889 21.784-22.554 15.895-37.222z" fill="#fd4755"/></g><g><circle cx="213.939" cy="138.004" fill="#e33442" r="39.106"/><circle cx="213.939" cy="138.004" fill="#fd4755" r="28.619"/></g><g><path d="m132.316 154.172c22.175 9.469 30.005 40.905 30.005 40.905s-28.122 16.083-50.297 6.614-30.005-40.905-30.005-40.905 28.122-16.083 50.297-6.614z" fill="#97d729"/><path d="m112.024 201.691c22.175 9.469 50.297-6.614 50.297-6.614l-80.302-34.291s7.83 31.436 30.005 40.905z" fill="#82bd1c"/></g><g><path d="m183.617 328.538c22.376-8.984 50.141 7.708 50.141 7.708s-8.513 31.258-30.889 40.242-50.141-7.708-50.141-7.708 8.513-31.258 30.889-40.242z" fill="#97d729"/><path d="m202.869 376.488c22.376-8.984 30.889-40.242 30.889-40.242l-81.03 32.534s27.765 16.692 50.141 7.708z" fill="#82bd1c"/></g><g><path d="m301.713 201.682c-9.469 22.175-40.905 30.005-40.905 30.005s-16.083-28.122-6.614-50.297 40.905-30.005 40.905-30.005 16.083 28.123 6.614 50.297z" fill="#97d729"/><path d="m254.194 181.39c-9.469 22.175 6.614 50.297 6.614 50.297l34.291-80.302c0 .001-31.436 7.831-40.905 30.005z" fill="#82bd1c"/></g><g fill="none" stroke="#fff" stroke-miterlimit="10" stroke-width="14.599"><circle cx="191.156" cy="266.766" r="30.013"/><circle cx="323.407" cy="120.35" r="30.013"/><circle cx="388.679" cy="264.508" r="23.154"/><circle cx="399.26" cy="389.82" r="23.154"/></g><path d="m201.339 198.024h22.715v22.715h-22.715z" fill="#965028" transform="matrix(.928 -.373 .373 .928 -62.7 94.327)"/><path d="m119.216 324.044h24.379v24.379h-24.379z" fill="#965028" transform="matrix(.928 -.373 .373 .928 -115.818 73.173)"/><path d="m339.972 335.513h22.398v22.398h-22.398z" fill="#965028" transform="matrix(.928 -.373 .373 .928 -103.898 155.811)"/><path d="m369.89 142.8h21.406v21.406h-21.406z" fill="#965028" transform="matrix(.928 -.373 .373 .928 -29.79 152.862)"/></g></g></svg>