<svg height="512" viewBox="0 0 64 64" width="512" xmlns="http://www.w3.org/2000/svg"><g id="Filled_outline" data-name="Filled outline"><path d="m42 35h-20v-28a4 4 0 0 1 4-4h12a4 4 0 0 1 4 4z" fill="#ffd782"/><path d="m22 28a4 4 0 0 1 0-8z" fill="#f9bb4b"/><path d="m42 20a4 4 0 0 1 0 8z" fill="#f9bb4b"/><path d="m19 39h26v22h-26z" fill="#b11e48"/><path d="m19 61h-4a4 4 0 0 1 -4-4v-1l3-14a4.188 4.188 0 0 1 4-3h1z" fill="#e33e5c"/><path d="m19 55h4a2 2 0 0 1 2 2v4a0 0 0 0 1 0 0h-6a0 0 0 0 1 0 0v-6a0 0 0 0 1 0 0z" fill="#ffd782"/><path d="m45 61h4a4 4 0 0 0 4-4v-1l-3-14a4.188 4.188 0 0 0 -4-3h-1z" fill="#e33e5c"/><path d="m39 55h6a0 0 0 0 1 0 0v4a2 2 0 0 1 -2 2h-4a0 0 0 0 1 0 0v-6a0 0 0 0 1 0 0z" fill="#ffd782" transform="matrix(-1 0 0 -1 84 116)"/><path d="m28 12s1 4 4 6l1-6s2 3 4 4l1-3 4 4v-10a4 4 0 0 0 -4-4h-12a4 4 0 0 0 -4 4v10a16.654 16.654 0 0 1 6-5z" fill="#394d5c"/><path d="m28 27h8a0 0 0 0 1 0 0v2a4 4 0 0 1 -4 4 4 4 0 0 1 -4-4v-2a0 0 0 0 1 0 0z" fill="#cb2e5c"/><path d="m23 51h18v4h-18z" fill="#d3843d"/><path d="m25 47h14v4h-14z" fill="#66342e"/><path d="m41 47h-18v-4a3.663 3.663 0 0 1 4-4h10a3.663 3.663 0 0 1 4 4z" fill="#d3843d"/><path d="m43 7a5.006 5.006 0 0 0 -5-5h-12a5.006 5.006 0 0 0 -5 5v12.1a5 5 0 0 0 0 9.8v6.1a1 1 0 0 0 1 1h20a1 1 0 0 0 1-1v-6.1a5 5 0 0 0 0-9.8zm-22 19.829a3 3 0 0 1 0-5.658zm20 7.171h-18v-16.671a15.959 15.959 0 0 1 4.429-3.877 11.483 11.483 0 0 0 4.016 5.38 1 1 0 0 0 .555.168.978.978 0 0 0 .4-.083 1 1 0 0 0 .589-.752l.625-3.751a10.657 10.657 0 0 0 2.939 2.486 1 1 0 0 0 1.4-.579l.489-1.465 2.558 2.558zm0-19.414-2.293-2.293a1 1 0 0 0 -1.655.391l-.586 1.755a16.039 16.039 0 0 1 -2.634-2.994 1 1 0 0 0 -1.818.39l-.708 4.249a11.478 11.478 0 0 1 -2.336-4.328 1.006 1.006 0 0 0 -.97-.756 1.011 1.011 0 0 0 -.446.105 18.452 18.452 0 0 0 -4.554 3.232v-7.337a3 3 0 0 1 3-3h12a3 3 0 0 1 3 3zm4 9.414a3.006 3.006 0 0 1 -2 2.829v-5.658a3.006 3.006 0 0 1 2 2.829z"/><path d="m13.022 41.791-3 14a1.044 1.044 0 0 0 -.022.209v1a5.006 5.006 0 0 0 5 5h34a5.006 5.006 0 0 0 5-5v-1a1.044 1.044 0 0 0 -.022-.209l-3.012-14.049a5.175 5.175 0 0 0 -4.966-3.742h-28a5.186 5.186 0 0 0 -4.978 3.791zm32.978 14.686 3.629 1.452.742-1.858-4.371-1.748v-14.323a3.182 3.182 0 0 1 3.022 2.209l2.978 13.897v.894a3 3 0 0 1 -3 3h-3zm-8 .523v3h-12v-3a2.966 2.966 0 0 0 -.184-1h12.368a2.966 2.966 0 0 0 -.184 1zm-14-3v-2h16v2zm2-4v-2h12v2zm18 10h-4v-3a1 1 0 0 1 1-1h3zm-2.821-20h2.821v14h-2v-3a1 1 0 0 0 -1-1h-1v-2h1a1 1 0 0 0 1-1v-4a5.517 5.517 0 0 0 -.821-3zm-17.179 3a2.689 2.689 0 0 1 3-3h10a2.689 2.689 0 0 1 3 3v3h-16zm-4-3h2.821a5.517 5.517 0 0 0 -.821 3v4a1 1 0 0 0 1 1h1v2h-1a1 1 0 0 0 -1 1v3h-2zm0 16h3a1 1 0 0 1 1 1v3h-4zm-2-16v14.323l-4.371 1.748.742 1.858 3.629-1.452v3.523h-3a3 3 0 0 1 -3-3v-.894l2.966-13.848a3.191 3.191 0 0 1 3.034-2.258z"/><path d="m26 19h2v2h-2z"/><path d="m31 21h2v4h-2z"/><path d="m36 19h2v2h-2z"/><path d="m37 29v-2a1 1 0 0 0 -1-1h-8a1 1 0 0 0 -1 1v2a5 5 0 0 0 10 0zm-2 0a3 3 0 0 1 -6 0v-1h6z"/><path d="m9 10h2v2h-2z"/><path d="m9 14h2v2h-2z"/><path d="m7 12h2v2h-2z"/><path d="m11 12h2v2h-2z"/><path d="m53 30h2v2h-2z"/><path d="m53 34h2v2h-2z"/><path d="m51 32h2v2h-2z"/><path d="m55 32h2v2h-2z"/></g></svg>